<mxfile host="app.diagrams.net" modified="2022-09-20T08:49:36.175Z" agent="5.0 (Windows NT 10.0; Win64; x64) AppleWebKit/537.36 (KHTML, like Gecko) Chrome/105.0.0.0 Safari/537.36" etag="tjgBnnTywz85i17t6NBa" version="20.3.2" type="github">
  <diagram id="Ib35h3V6G6xAA7tI5el3" name="第 1 页">
    <mxGraphModel dx="1144" dy="599" grid="1" gridSize="10" guides="1" tooltips="1" connect="1" arrows="1" fold="1" page="1" pageScale="1" pageWidth="2336" pageHeight="1654" math="0" shadow="0">
      <root>
        <mxCell id="0" />
        <mxCell id="1" parent="0" />
        <mxCell id="b7tUEqrKAt5MrTvn7w7H-1" value="1. 每次写的时候，如果遇到重复的则将旧数据清除，写入最新的&lt;br&gt;&lt;br&gt;2. 若设置缓存最大容量，则当缓存数量超过最大阈值时，淘汰最早的数据&amp;lt;有序&amp;gt;，类似于栈后进先出；&lt;br&gt;&lt;br&gt;3. 若指定了key过期类型是写时间，则当超过X时间未写入则被淘汰key，不通过缓存操作key对应的value，无法更新该Key的过期时间；只能通过cache.put(); 不管缓存满不满，过期就删除key；&lt;br&gt;&lt;br&gt;3. 若指定了key过期类型是读时间，则当超过X时间未读则被淘汰key，不通过缓存操作key对应的value，无法更新该Key的过期时间；只能通过cache.get();&lt;br&gt;" style="text;html=1;strokeColor=none;fillColor=none;align=left;verticalAlign=top;whiteSpace=wrap;rounded=0;" vertex="1" parent="1">
          <mxGeometry x="20" y="100" width="460" height="190" as="geometry" />
        </mxCell>
        <mxCell id="b7tUEqrKAt5MrTvn7w7H-2" value="" style="shape=image;verticalLabelPosition=bottom;labelBackgroundColor=default;verticalAlign=top;aspect=fixed;imageAspect=0;image=data:image/png,iVBORw0KGgoAAAANSUhEUgAAA60AAACHCAYAAAD9er8SAAAgAElEQVR4nOzdeVhU1f/A8fcIKrgBMoiCgruOae5riuZWppahlktmmd+wcitNLSolI81Sc0kjzTYrE0V/aqWZppCmKe4yuYMbICM7snN+fzDAgCwDgpB9Xs9znwfucs655547c8+c5WqUUgohhBBCCCGEEKKUhYSE4Orqek9hVCqltAghhBBCCCGEEKVOKq1CCCGEEEIIISosy/JOgBBCCCHEf4lSitTUVNLT05FRWqIwGo0GCwsLKleujEajKZc0SHnNrSJck/8iqbQKIYQQQtwnSimSkpLk4V+YRSlFWloa6enpWFlZ3fdKkpTXu5X3Nfmvku7BQgghhBD3SWpqqlQARLFltXbeb1JeC1Ze1+S/SiqtQgghhBD3SXp6enknQfxLlUfZkfJaOMmf+0cqrUIIUZbiA1nmtYHr5Z0OIUSFUNxWK72fN94+/hjKKD0Pugcp/8qjxfPf2Mp6P6958fLnOhu8lnEsvsyS80CTMa1CCFFWUs6yfMp3NF74KfXLOy1CiH8hAxER5Z2G0qX388YvohceHm5ozTzG4O+DT4ABtIUfp/fzxk8POndP3HXwIOafAPR+ePvpc/7PVS4q8jWvzyiPxkyfuoKqPlN4qHJ5p+ff5T63tF7kg3YaNBoNtV78mezfJva+ir1Gg6bdB1w0M6T4k1/wYjcXalrXoG7LjrjN8y+F9AWxce5sXuw5ha0lOn4TIzSZ55e5WFJd60L7obPYevm/0H1A8q9iu8TCrtZYW1tT5+Vfc+6/fdNwsrbGuutCLpkZUvypL3nZrRkOdlpc23an/wd/lkL69Gye78nLfd9ge4mO38Jo68zzy1xqYO/cjK7D32b7lfIoP6kcXzCLoBFeDHXMvUU+v0riKDMbmqYvZ+m17EYZxHeEt/q/xdFSC+9+5e8djjz+GQvtcpaPnL5kVZ+dHD6cXKzjv/40NPvvjd/dQT/+cxbafcWew8VJTwrnX/2VY6ElPJ18pO3aw6d2uc9xod1nLOx5lKj7EH/Z0ePnnVnpyqHFzcMTz2JU8CqO/M7nHmi1aA16ggpqPjP446/Xos2VUWWZf6V8fiWQdiuFBR9F0+G52zR5MYrhnyehTyq/9NwPBn8fvP3A3dMTz6zFzcBm/6yCUb73zKYFBuo+nWd5KSHnu6TuULzczzBrwXFkNGzx3OdKa1M8969lIBB34gSXjWuvBAYSSX/W7POkqTnBRG/HY9hqar+3n5u3zrNxgj1BAWfz+bIqvozYE/x+IJS0Eh09go1RaxhAPz43pKFSYwk5+C0vWPkydsJqyuKxqqKR/KvImjD7t9X0B+JOnuKKcW3w8WNE0ZdVv82miTnBxPzM5Ge+wO7t3Vy+eprvx9ujPxBEdCmkMCP2FHv/Kmn5eZrvw1bRj0dZcSOexLhbnN/3JeOq+vGCxxfcLIX0FcvlVUw/OIj3BtvkXi+fXyXUiY9PrmUg/fG5nfnahfSEa/yxYCBX9u8jsdTjc6Blz5al+NBzv/K3Gp0396dxZWcGnHmFObcnMe3QYLo2COeP9/4hzozj241viNUzg3huej1aP9uAGuOfxH1cNVo8356O342mX9fipCeN9IYuuNYt8Qnlkcw/WxLp8st4Ztx8jBZWLgwOfoUZJx+lSd3K3N1wUdrxi3JjcMBBZyDAP/9aoiFIj0HngMOD0A/YLOmsXJdCq9G18F9Xm8Pzq9P95h2e9UkhtryTVmb0+AcY0PZyQ2e6WueOh1tF+FlHEde4BvotWsJMly+r08lkL5shcxl0YDqrLxcYkMjHfe8erLGxoSauuN45wYlUaFI5jcDAU8BgbG3NmzL6+rcfc+ipFZx/ohEWgNusb5h3+lPOA8X6Lr1LK0Yt/R+bPt1Q4hAq2dpSC1vs7S2Aamib92Ha6tlsaXiI04DzPaWvopP8q+g0NjbUwAWXxJOcSoXGldM4fuwM8Di2NubdfzfWL+XvoUs5/XhDLICeb6zlnTMruAB0vqfU6Rj58QT8Vm4scQiVbGypiQ32tTPLj30zNyavmMG2Fn9zBnC6p/QVz4mvv6La8F13xSmfXyWX+f1hQ+3amb+3VqpWnz5zNrN2ng+nuNf8y6sh4+c1LNUQ71v+XooismV9Bjpn5pOVS106vuDC/o/N+6U6PSUda+eaWAJJqenUaFgLSxTXLlWn7ctWxUxMNXSzHipg2x2Oe12g8dy22BSwx11uXiGuz6P06F4dTkQQ1rQefWwqUdmmGS36XaBKseKvOLK7vwL4eeMNaHt54OGmvas7rd7PGz/c8dD65xxj7B6JaTjocPd0z/1wb/DHxycgZ6xfft1t8+6DaXdbyGxh9CPCmL7stSbppJDzyXPm+Pv4EOCQ53zySzugc+tFhI8//gYduYPS4x8AvTx0GPS5K7W588+c+Erh/IrM58w4slJq2p3Z38eHAMzpPp1BZLSG3i6VqAHUqF+FmdOs2TslhWNUoU+hx967kpdD4zlmZ07O9qz7IL/ypte54+luDMEQAYXkTq5rnrcrMVlJNfd6Fe+axGo01Cx0HwAnRrpb8/g3J5nq1bbIvUWmchrT2o4ubf/hRBAMb3uWwBs2OBZ9kFEYm30vMOTDR7DIXlePsW+OpcKOa05IIKF+/XJ/4PvXqlD5t4XR1mPy6X45jB8Sf+TpckhR8bWlU5vznNTDsIeDOHazFnXMPjacLX4XeeL97ib3X11Gvz6qAt9/d0hwdr6vFVa4xM5dFvT+Nu8nm3x+lRq1j/ce/YN++7x4fN6MUg06PTGGqOhwgvZeps7Yx2lZqqHnUQb5mxgYTnLHDthmr1GE/RlOnac6UN2M41PiU6laqwqQwD9bwrB6piokXSXcyiVXa0GhVDop0Skk3YwgNN6eFl1zx5wRF8tVn30cje1Ae3PDBHBqSfdRmX/eOXaLlE4dsAOgMg+/0sqs+FXiHWJiKmNbt+IMKNO6eeDplvlwTq4H9gLo/djcywNPT232A7ePdwDo3PH01JH1oO/np8czKzC9H95+EfTy8DRW+DIfxn18yHkYNz7g69w98chKg8EfHx9vfPKtdJbB+eSX9pyAcdMF4B9kwM0kLQZ/f/Q6Nzy14GdOAs2NryTnV2Q+51SKPY3noPf3x6ArbnfWyry/ME8ZTgflbEGjYoVzD0pQDg3+/jDcE0+TvPHz8c/MGzcP3A3e+GXnhwF/n6wKa+bxOh3o9X54+7mbd7107nh6miY5s0I7PKv8mHNfmE2RjsasypVj795oxu/ksldbGhcrjv+ucpo92JL27a04cSIeYo5yrlF/umVv28yzVlZU0WgYsSENNo0yjv8ZwSYAgrlypRktWuRuFbJ7+GEaAJBG8LZ3eLJ9fWysrKhVvwOjV58g90ieJC5snsOTHZtgX7062hYDmLX9Gqbzf2WE/o6XezvqVremlnNHxn97juxRRyqSg4vH0LlRbWo56hg0extX8+2Ynkr0hd/4cM4BHl89nTZmpi/q4DLG92pOnRpVsaqpxbV1V9qP+Cxn9lGz4y9IYecv+Ve4p/kxMZHEuxZzKqy3mfvyAdo+cYLNMZEsmu1PnUd+xW7IATx+u5OTfyqVg+uP0/nJXdQauI9By8O5mgYQyohOO9B0+o3J2y/RqdMONJ0C2XTT5G+zzsGCdu2qcupUPMQc43zDviYtVFt5ztaWWtbWjPZNgy3jjONDR7MFgBBCgpvSrHnu+8+2TRvjRENphOyYx4iuTXC0taVOk248/8Wpu8rPxa3vMKJ7K5zs7XF+eDBv/3w9d/kJ24v3s11xtbejTuPuTPz+vEn5ieLQsvE80rIedVza8ZTnDq4VUH5iLv7OoncOMnD5FFqbmb7oQyuZ2K8NDbQ22Do407xjL7qO/jyn+6ZZ8YcQEuKE0101Zfn8uvfPr0zJp/bgt/8suefbyBk3ajlqE0nrh5l8fwTy8eCetHd5ke+Or8RdZ0cN+8b0fMmHk7n6zAbi2bEhD7VuT5/n1nIme30MW6b3onuHVjSwHcNmbrP/g6E0t62OY++lBJVK/hb1/Weem4ER1OuQ+VNUenQ0V77w52h6F558ObM989K0dXzs8BkLhweRrK7xi2vmmFDf71MASElIxcqmKgRd4NylSljZVCHp5xisn6hFyq6DfD/Qly/bf8XWDSnc+es4W93Wsdh1I3+dzknD7aVbWNX1e77ouZ1TF3M/WBsWbWCRy3ds8L7G7XX/lyvuLIlHT/PzE9+zvMFaPh8cwIXrd8/QGRoYQb2O+f/kVmD8Zw/zhdNX7PTRs73HWhY/tJd/Dp9ha7e1LG62g5PXzY+/XGlNHrq1brjpAHS4Zz/E69DpgIgIY+uRAX9/PTp3D5MWSi1uw3uZjBPV4+enR9vLI3clTOvG8F5aDAH+lNnwTdPzQYdbLy3o9fnGp9Pp8qQls8uoTmdehbO48RWPGflsiCACcHDIqQ7p3LIqRyUbj5malEHI+WS816cx/BUrXO/5PMxU7HIIWjf33HnjpgODIfuzXOfujs4QwGZ/Awb/zQQYTMPLbJX26KXNrGx6e+fbilogvR9+ei29hpu0ohZ5XxTnmihA8ds3sfSZeJsm46Nw/yKZy/l9Bzg74xwSTHC+4WxhdPZzl8hSbq+8adq+LZdPnoLAY1Tt2cvkV4nh/JS4j1eHfcjHoyxhxFesnziK9dd/ZAQA4YSH16Z27YJCPsKyGQfo8eVRwmJjuPRTf06/+Sl/mOxxy/d5ek4/xSMf7OBcRCSXd47k7GRv9mfvcZavPvmLljM3cuaWgTPL27D3jaUEGLeGfP4sE/7swTL/EMLObcUj3oth3idNHho3M1KjQaOpgl3nd4ke9QlvP5pV1ItK3yG8nllJlWlbOHMrjuhrJ9n95VuMqJvGLbPjL1zh5y/5V3Zq8swEe6rdimHdOgNOz3Xm0h8DOf56dX795DJZUxmFbA5kwgk7lq3pR9jmTngknmfYulgU9Vi3pD4OXVvy4dDGbHrDnkZjGjHcqQk/THHBa0N74z1StCZtH+bKqTNw/ARVe5i2+g1jfdRveAx9nwUjLeHpL/jqxZF8delbY6U8nPBbtaltV1DIgayc8xfdfA4SfCucoPV9Ofv2CpOyARF+L9F35hm6z/Pj9LWb6Le5o3/9o+zyAXq+XXqYFq+v59jV6wQuac2+WSs4YNx6dc1zeBzoxuLfzxN8eiMTE7wZ+dEpk+u3lTHW1lhb16JuTy+iRy5kVm97M9P3N95jP6fK5J84djWCsItH+PnzWbjXTcv+Qi06fgCFUhru7nAtn1/3fv9lps+q3QecvWvbCDZE/sV7XRsxYcJgrMYu54s3vDgY7csIGjPklc5wLYBvf6rEG7uucevCNjySPsL9nQByqkwdWRgURXjYWobmCrsaXV6Yj/fcx3GISebC2nfYYD+HfdcD8RnfAYdSyd+ivv/MEUVoYDKXp65lod1nfNz0/zhOKwa835haxhu9ybJxDBjSnBE/tKKqpgGdX2/JI7teYsTYzM61KfGpVLWxJHhnOs59qlDV5g7nImrQXAsaXVN6vd2UmretqBF7mgMBNenhN4YxS9rT2KS5wP6NEUw//zSdm9hRr2PuTrvaWaOYEzWGni3t6PnXa8yJeo2RY3P2Sf7zT3y94mj20dNMOv8cwwZHs8vzYp5JS6K4GWiNU8eq+eZCgfE/1JSWTauSXtmGXj8PQHcnhBN/1qDPjoG00sSRkGhu/OXMweHuB2itNrscAjiYzkhkCEJvML4KxNtk8QnAgAFDBPlWprKDdnAAIogoq/Gi+Z1PQXRu9NLq8c+aeEevR6/tZawwlUF8xWFOPmtbodOW5mtZknlldCRd5ydRqXc1nm9s3lCfUlHccmiUK3/uqnTqcPfoBQE++ARAL4+7u4lr3Tzw9DS2cOv98Pb2wb/IjMz6UWZ4TgXVnOtVTHFHkjnWtBrfLq3NiSU1GBiWwPgNafnMNaEK+d7rxbu73qVX8aN/oJXbK2807dtT++MTHK2XSKsh9pzMtbEbY3Wf88sNeM3xAP84v4yXc9YvpVWoUiWOuDgg3wfn7iy98Aekx3D57985cOIWmoR4k653F/nCO4Bh6y4xe0C1zFWNxrL69yEmXZRbMeGTdxmZdd8PG0SnEb7GD5YgvlyRyOS9k+lRF6AFwxa8xqrOGzkzr63x1/Lh+KpNjEhLIOLiX6yb+SRPhm5h96RmZqTPngYN0tl38RJXQp3o0MSZ5l2d8cxuCjMn/sIUdf6Sf4W7l+7BVXiomw3OxDNyWnOeNf5kVLOvI51n3yQcgDi+/CmDyZ83pIc9QA2GTW7IqnE3OfNyLdr0dGboslCOZrjQ0hJC/gzn5OtV+L8bNZjY1PzfoDTt2mK39CTH6iWiG2TPqVwbuzCq5Rp23oRJdf7inNNLvOuU5/6LB5O+hya68vGZXZAew5Wje/nrZASahHgSsrdf4suPDvCkTxAz+hnLT8NRLP/lCZMuyi0Zv/At3I3lx37oY3QYvZnbAOj5enUik3a+QjdHgJoMfX8SPj03c/adh42tqcZrkZaA4dJhvnlrBCPCfuLn/zU1I321qV8/Hf9LlwkOc6JdYyeadXZidvZgXXPiB3DF1fUmN0Mh9+AW+fy6t/svJ31D/p5N2653z3dtadeNeb5ePPW0BwtPtET3+rt0t9EAduiGPEITQnjmw1fpWQmgNeO8X2VZn//j1LJeubu+Vs47qU9lnNv1wbmdgcb8QkijVazul5nrwyZkdSC+1/yliO8/M8SHczO0Jc/c7kdjlUbilVCOTP2Vn2uPxH2Edfa52DlUIjYNSA7mnGVrHulilf0jS0q8oqomhJvVG1En6SzhYcGkttRl5odLHVzsbvNXigUWrXU82sNYDoc3yyctEYRH1KFT8wLSedPx7m3qFgfeiKL9r0Npbvytqe5wV2w2xJCAycdOfDg3Qx3p3KKwvMgn/gQD4RGN6D7HFdsEPXHpDejyekNsE/TEJtehReNbHBhrRvz/UrrCuur+ayYw0tJKpyVAH4TBrRVB/nq0Oo8KNbtyoflsbLlzM+1OW8SrfApXlS98q2AITWPjN3FMiK7J+n4WRR9WLrLG8pqMc9X74W1Wn+676dw98cwac+rjh0M+46CzY/YzxptPF/fCr1dxVMZzYWUsLXL+nzTRip/mJXN2nCW5Rq/eDCXUxQWXfMPR0qpCTCxVsZRbSyuO7WgXfpR1V23z/XWs8yhXAr45R/KuvVTq19skofWpX/8616/n3v/O1ZDsz9s7RxYzqPlDDPH8Gv8LUXl+3bjAhQvteeSRaibrquPSzImc32s1aEx/qLKwMGmJCiY4+ABT6pm8usDmJXYH59PEb1kdh5b9me3zP+IXreGYWelrxow9e5hW+wirJ7nRtEl3Rnv+SFD2U3Ux4s9X0ecv+VeYe+kenJM/FpVy/WvSIpdI8M1Ipjy2A00n49L7JLtDEzPTV8mex5sb8DueyIadCTglXWfF6ssccqxTvDFxddrS9tYxvrlmQ898Bux1HOnCgfXnSd69j0qP9jK5/5xxdr7Bjbz337Wrxkol3AlcxlNtOuA+9zv+vBSd5/pc5OLFdnTvnrv8NGhaz8zyE0JIyF+80dDk1TaOk9gTEkJI3pOwrI62RV9mrHyR+CXrOGFW+poy7ddfec0ukC+m9OehVr15fu5G9Nnlx9z4m9CvbxIBAXmfAuXz697uvxxWnR7nmd4P4QBkxMVxx2SbpsE4Fo+6xIrjTXCrn7fVoRKVTO+/unWpe+tWdkuweVrTr19+MzHce/5CYd9/ZjgeTujDjjhVAiwssW7agB7jtYTsz32GtRulEaHP4Ma6Wzg+75grjpR4Dal7o6nlXoOUeEtuHVPU723yEHz8FmFdWtGtRzUKdSyc0LZ1qZffCRwLJ7SdMZ2mjl4g6MJVfm5q8iqblgHcqFONanmOD3vYMf+wC4v/WBihbY3xHrtFaDvj9mO3MtNzzMz4/220DjgAEYU1lRayjyEiAnAgsxHWAa02azKc8qF1c0NnCMDfz58Agy7X+NZ7dw/nZ04+Z+/rhoenZ+a4TEMABUyKbJZKlhrqNKjM5MlWxP6UlP19V+Ho9ejR5mo9Ndz1UlUD/psDoJcHHr0gYHNRrdHGLsaFxutnfH9vnkptca6XmaKjMnL3ytBa4BSTcdc5RAQEkNKvv3lvbRBAeVZaaUt7l038FNs5/xkfHx5Ny78/Y/4fFjzW0zSZOrp3v8Xu3aaPiNFs/naHsbXkPIsn+tB03VmC9vqy5tNx5J430AknpxBC8jzhxpw9S57nyAK44OLSk5VhCqVMluTv83QlM1GlClUMBmOBLSp9QLVG9H95Pl/vPs2VUxt5tZ4vT/X9mPMljb9Y5y/5V76scalbm5W/DUEdNVn+am9MXyUGdK/B9m9P831GI1YPq8K6dQY69KxRzHja0LbBFnxjO+U/42+bZ2hx1IcF+y0Y0MP0/mtJ16632LP3qsm6GLZ+/4vx/rvAslfW0sTnGMd3/sCqj8fk+dWzHvXqXeXq1VwriQkKMvOVHw1o0KAHS0Py/GgQ8zWDCzqkShWq3L5tLD9FpQ+o1pC+L81lzc9H+efI93jU3czIx5dyoVjxa+jywvPc9vUlLNd6+fwqtfuv0qPM3+dFb+L5vw+Xm4w9BXVtExvtluPb5Ete31L4w4j65x/OFfhrd3Hda/4aFfj9V7TowFtU7ViHnDl+FeGnb2PbsFau/Wo2sSRq+zHO2+polmtTBinx8VzV2NPSIZWUuCgS6zegrkndP+pYOFYdHbGmcFGB4VTtWCff/aICw7Hq4GhMZwqJkRmZsV+NJWXMEOZEvZZ72dQq18zAUcfCqdqp8DTkF39UYGbarYxhWBvPI+pYONYdHKliZvxlqTQfoHNkjts0BPjkfq+owR+f7BUF7KP3M87omvXAr8XBgdxjQI2VgvyU5fno9fq7X39yz+7l/MzIZ4M/fnf1ZdWidYDMSYDM7TacxoL3Egg0XZWuSE9WVOxXtZp0uzX4sznPj7t6v8yZeoe7adG6DacXASZlVI/fXV2BM8elotMVUA4yuwWjc8+nNdWc+6I41ySVBfMTMRneT8bVNC44WBjn/cgShu+mSMa90DmfYUSiIPe90qpiYogjjtjYGrRvXw9d+15YJSRwhxiio017d7dkbNcDrM8YRPdcV9SSxye/RuSSyXx25BZ34q6x72MP/F2GGweeXyUkpDJWldNJjL3G4S37CdYEsfEDP+NDUxvGPl+VVa95setcBAmJMVz47UNe++YKdkBGdLQxfTlpUXFxJBBDZGQG8BDjJiqWv7Yc/0uRJKbcIezkJua8vpYrgIqNJY74zONVCrEhB1n16iKCHnvM2PWsqPTtZNrAmWwOvEp0UhoZltVxrO+A5voNIqHI+ItW+PlL/pWtjIQ04kkjNqc/KupOGgmkEhmrgJqMGwbLF17B/3oqianphJ0PZc6Sq9nps+1Rh/oHbtPgGRcGt7XDVluHJ/LrfpcPFRNDPPHExtagXdu6tGz3CFYJCSQSS3SM6f3XglGdD/JjxmN0zXP/DXxlElHLXufzwAjuxF3Hf+lr/NngaeND/zWuXq1M1coZJMZe58i2AEI0/7Bp4f8ZK32tGTW2Cj7Tvdl93kBCYgwXf1/E9PXB2AIZMdHG9OUuP3eIJTIqA2jFmBcVq6Z9xp+Xo0hMuUP4qS288+ZXBJNZfuJJyCk/Vw/hM3UJ+v4D6GhW+n5j5pA5bD1+jRhj+alT3wHNjZvG96gWHn8uLaeypO0WvH41fWOefH4Vfv/pWdK7Hs79lnOugPIbRzxxcZnnlxJzid8XjuT1y81pZ9wnLfIA7y28yZgJHekxdy41P3yRNedM3+J6mG8++QX9rTiiL+7k7dd8sJ/w3F2V76x8y/29BCo+noQ8eZzjXvM3u/AU8P1XeP6QkUjwn7exb2YHKNKiYri6djc/b6tDj3F5+qM3siHmlxR0Y/O+nCGV1ITqtB7viiUppCQ70XasSafY9CRC/ozEvlkRHWXTEwk5cJvajfPfLzokFk1qGinJSYT/cJrLkcbXGLWoTfW9Zzl2NI7k5HRSbtwi6ONDBF3OHXZwQGSBYRcYv8pMu4PODjKSCDkQiUOrnL+1Le2KiP8Uix6pT5Nn15fRe58zJ5wxBPjg7e2NT9GD9IpF6+aBRy9t7vF7m2G4yZO81s0DT3ddnjGHmTOrmj7w69w96KXV45e1j16Xb4WgTM+nlQ4tWnStSr8b5b2cX5H5rHVDZ/DJk78eFL+xWEPlKhlcu55BQqri9o1UVvkkEt2nqnFG7rIuryWgc8+dN3nKn97PO89EScZJkbJfW6PD3dMNg4/pGFQf9DqPAmcSzuwWTM7ETXnG0ppzX5jPgtZtIDI4g+hkxe1rKbz/RRJ2fatiOpIh9pd5bG23hKkFDm8wEOQf9O/psX+/qPsqQq3onTm1VtWxW1Sy7xw1NzBnHW3nqwsme8f9+IZ693BGPuGkqosbp6k+jW2UtW0j9ZjnbnXLZNvZNc+q1vbVVDXnnmrmz4eVz+P2SvvY5yo4a5eUELX9nadUOxc7Va1mPdVuxCfqULRSSvmq4VlTf7nOUEeUUkodUTNcjesYrnyVUiotVO1dOEZ1aaxV1arZq+YDZqhtIem5jwcFlqqGYzPlNmGFOhxpbvpOq/m9W6suHVuoejUqK0srW9Wgw9PKe29EzukXGL+ZCjx/yb+ydVMN77hd0XG7YshZY/5EqxlDjOs6Hs3Mn/QktffrY6rLk7tUtUd2qeavnlXbQk3vg3g1f/JJtSdFKZVwTT3nHa7SzIrfoFYNsFJWVlbK5oVtKtnvHTX/eM46qy4L1EWTveM2zlJeR/K//y5tnqkG6hyVnWNLNXTuHhVhsi1o3XOqo1NtVbtxXzXn1yNq7ZNOynnoGhWStUvKVfXzvJGqS7O6qrZDQ9Vl9Kfq72illPJTo6yMaWk+WwUqpZQKVKpudwMAACAASURBVLObG9dZjVJ+SimVFqb2fTJe9dQ5q9q1nVSbwbPVjqvpuY+3slJWVjWU1qW16u+xSh2JMjd9Z9SCAR1Vz+4Pq4bamqqGraNq2u0Z9dE+Q87pFxh/PhKPq4Vjp6pt4bnzTz6/Crr/gtRit7qqrttiFXRXZu5WL9mYpi9neWTpNeM+WefQQs09rdS1pY/kPnflq4YzXC3f/rrq7lRd1XBspQa/tUNdSzWNxzTPTPPzgprfNs96m5fU7rzJvKf8zZH/919h+ROmdutWqgW2WcsqtbjZd+rbCX+ri1fu/oRIO3RE7d+RdHfEKlYdnhmoMr8SwpX/nHMqc68UdeqZz0zCX6kW1N6mTsXlPT5B/f3Yytz71d2lzqfm3it++161puHnaklrP7V7e6zKOdNUdWv9H+q7Dl+qT+qtVZ8P3qtOnEzJOTDxvNqkzQp7nfr9kPnxh81fn/n/kFPq0rzv7v572BmVWGj80ergggGqnv1EtSufnDNXQkKCLLKUeDGVciNJec6NVLpRBtXif1Fq/PpkdTX7XpPyWh7XJCMyRS1ZFKXajTGoZhOj1JhvktUN04/gsG1q6tiP1PHEwnLdT43KeuZ5QAQHBxe9UxE0SqkKNo97OoYL50h2yOCbGTtw/3JO2b4jTwhhIp3bF8+T7JDB+tm/8tTnMylsnhNhhti/WbL4Ms96jap47zr9j1Fx6xhU63uGRexmkrYcR8cUqKy//1KJOXeHqnZx/L0sgfbeLcjbziqKcGUJfWc4sNlvXP5zqZkhMTGRCvfoJf4VNBoN1tZFdcw3IeW1zBXvmtxgw9yfaDzjDbrUKmy/LYxu9CfTriw2eSXov1tISAiurvf2MqZymz24YKdYOaIPS+N6MG+Tn1RYhbivzrB6zEBWxHXjnR83SIW1NNTqwhteXco7FYLf+V+Dl9gF7HIYiGXU70yscFPBlvH33+mT+D5xnIweHXjii45SYS22a/y06hbTlr9e4goAgIWFBWlpd78AQ4iiWFgUZ1ZgKa/3Q/GuiTOjvN4wa0/HIYORJ4fcKmBLqxBCCCHEg0kpRVJSkrReiWLRaDRYWVmh0dzfqXukvBasvK7Jv1FptLRWxP5RQgghhBAPpKwHXUtLS3nYFUXSaDRYWlqWW+VIyuvdyvua/FdVwO7BQgghhBAPLo1GQ5Uq9+slOkLcGymvoiKQllYhhBBCCCGEEBWWVFqFEEIIIYQQQlRYUmkVQgghhBBCCFFhSaVVCCGEEEIIIUSFJZVWIYQQQgghhBAVllRahRBCCCGEEEJUWFJpFUIIIYQQQghRYUmlVQjxYIsPZJnXBq4DcJ0NXss4Fl/OaRJCCCGEEGaTSqsQ4sGVcpblU76j8aRR1AegPqM8GvPt1BWcTS3ntAkhhBBCCLOUQ6X1dybaatBoNGg0I9hU6L5HeKv/Wxwt6yRF7ud9zw3czPo//gzrJj1Ki7q1qOnQlO7urzDp7R+MLTWlqSzO7yYbPOezP/JewrjMtoXvMPPV0fRpMgG/Ave7T9fngZTG9gl1cJz4M2nlnZRc9vJKXWusra2xth7NlkL3DeTdJ97lWFknKdf9WZzyncrxBbMIGuHFUEeT1XWH4uV+hlkLjiP1ViGEEEKIiq8cKq39WROyloH0Z02ULyMK3deBlj1boi3D1KiI35n7ziEGzBqFEwCx7Jj8NOvs3+aXf8K5df5n3tWd5ccfjxNe6rGXxfk5MWpWfw69M5c9BnUP4VhS3SqKy5djyShwn7K/Pg8sdZgjVXvTbv/eClbp78uqc6vpT19Whf3A04Xuq6VFjxbYl2Fq7r4/i1G+L69i+sFBvDfY5q5NNkPmMujAdFZfLotUCyGEEEKI0lQu3YM1NjbUxAZbW00RezZk/LzxNCxhPH/PmlVoS64K38m7804y9KPZdM9+rj2En19T/vf2AJrYWmNt14InvDezrEsit4oZftHu7fwKZNOd2QuHcGLuu+wML0nFtTFPzpmH15KJdCl0v7K9Pg+00wFkPPohg533sieovBOTm8bGhhrUwtamqPvTlefeeQ7XEsZz9O23C23Jzf/+xOzyfeLrr6g2fKSxspuXEyPdrfnqm5MlS7wQQgghhLhvKuyY1vTEGAyh5/H/fif/FPfgjCRCD3/K3K8KbkbJuLmDt+efZ8RHM+hU03RLHerUCeTnbTdNWhgdGLfmQ3oXI/yi3NP5maNWZ2Z8NJzz899mR2jBbaUlVdbXp2BbGG2d1X3VdCmqK2vFErIvkab9mzFgoCV79pZ+x/Oylp4Yw+2wC/y54TfOFffgjCTCjqxk/rdXCt6lwPvTqMjyfYmduyzo3dsxn22ZHHv3RrNzJ9LYKoQQQghRsVXQSmsgnh0b8lDr9vR5bi1n8myNOriM8b2aU6dGVaxqanFt3ZX2Iz4zjjk9yszG1jh1e52dhs2MzGfsbPq1rcxZcJXRi6bSrkbeuNsxfdmz6Ce1psuET9l7LRkAi1q1qFZk+DFsmd6L7h1a0cB2DJu5zf4PhtLctjqOvZeS06BW0PntZ27vR2jb4AU23/6TRSPbUadaNexcu+Px02Wy2pTijq7k2Y71sbGuTp3Wg5kwzo0GLd7k77ynUqM9UxeN5uqHc/i/6+nFvgoFK9vrU7in+TExkcS7lh+L6MoKcJu5Lx+g7RMn2BwTyaLZ/tR55FfshhzA47c72fmLSuXg+uN0fnIXtQbuY9DycK6mAYQyotMONJ1+Y/L2S3TqtANNp0A23TT526xziOb3GAcG1gbdgP6E7tlLLAAxbHuzH727tadp3fFsJZKAhcNpU9celwEr0Be5HSCNkB3zGNG1CY62ttRp0o3nvzhFcnbcW3nO1pZa1taM9k2DLeNKUOk/ztweLWjfoRsDX/yKvA3F0YdWMrFfGxpobbB1cKZ5x150Hf05NwA4xhydHY3c3uS321sZk0/chd+fJgot3yGEhDjhlH8zayZnZ5xDggnOd+MWRv/LfggRQgghhHhgqXLhq4YzXPkWtVvKD+rJu/b7S01zbqom+p5R4QnJKjHqujp3aIv64LVPVaBZcdxQq0eOV5ujCo866dpetfSlrsqhekM1aN5uFZ5hzjmkqOvH/1B7tr6u2uOuFqyZpCat+lPdiNOrLV/uU7eKPL9b6syut1U3Wqkn3nhPffdXsIpNjFdXfMerBnVeVf5KKaVOqreaNVMefkHqVvQtFbTpf6pJgynqz9RCTiZqkxr/zOfqRuGnnI8irlOZXJ+ylKzO/KVX3TruU08sOae+O3VHxSanqSu/H1cNBpw25q9Swb5/qRYzrqgDYakqITZObVnor9r7xKgMpVTM/uPK4dUQFaMy1JXvD6pGi2+rDKXUua9PKq8L6eYl485m9eHSfzL/Tt+jJjV7Xm1PVkqpFHXj5H71x7Y3VVerZ9XH66aoKT4H1c24f9S2r/1VRJHblVLqkJr50ED18fEwdSc5SUUcfEt1sJ+odpnGn3FYzRy5SF3JTIz68ZVx6scbKSY7+KlRVqOUX1HnkfKTGnHXfofVzMYPqVf8zqpbCckqMfqGOv/3NrVw+gp1PNd+BcVh3v2ZS77l+3flUWeo+ja2kONiv1aDHSepPflujFBn95815qkQQgghhCip4ODgew6jgra0GlWuTOW7VtrToEE6YRcvcSU0AQtbZ5p3HYbnyml0MCtQJ/63eBiH3l3F6TsF71W1/qNMX3uIS4fnUfv7pxn4/olCJiTKTjDO7frQ96keNOYsIY3msfqVR3Cq0ZJhE3rjUOT5OfDQwPY405znF3nxXDdXalpVp+HwwXS+FW6cCCqJpCSFsrTG2roGtrWrU0VZYGlZQJLunGLVu4cZ9snEAsb23YMyuT5FuZfuwVV4qJsNzlTn+WnNea6NNTWrWNCwryOdI5ON+RvHlz9lMPmthvRwtKRazRoMm9wQ7c6bnAFq9XRmaFg0RzM0VLGEkD/DOani+fFGDV5qat7tlP7n7yx7q11muqsP5utre9l7WAGVcXrYjT5Du9MIPVcbvsPyl7tTr0YLho7vhbbI7QBd+fjMLma2sSLs+F5+OxmBJiGeBNMEaLowquV5dt4E0v7inNNLPON095UsUuXK3F3salO/fjrhly4THHYHCxsnmnUeyuylk2lnVqDm3Z/ZCizfrri63uRmaCHH3gwl1MUFl3w3amnl1komGRNCCCGEqAAqTKVVxcdjzjMqNGPGnj1Mq32E1ZPcaNqkO6M9fyQooegjs1g0GMbCtxrww6wVnLjruFNs2ZIzyq3mQ+P5ZuM0kj7/kr/MjwJoTb9+BY+nKyKFWFiY/KvRkDMlThfeXtSeP6b2o4GNlodfCWLE12/TNb9g4k+wfNaPuLy1kGENLPLbowzc+/Up3L10D86iwaJSrn9N8jeR4JuRTHlsB5pOxqX3SXaHJmZ2I61kz+PNDfgdT2TDzgSckq6zYvVlDjnWwdnM2I/6V+Ljm1npvsOuSZXZs+d0nr1a8eijdQoJpeDtdwKX8VSbDrjP/Y4/L0Xn+0qdjiNdOLD+PMm791Hp0V5FfhCYf382Zdqvv/KaXSBfTOnPQ6168/zcjehL7f40UWj5bkK/vkkEBBgKPDwiIICUfv1pYn7ShBBCCCFEOaggldYM/lqxiiPm7l6tEf1fns/Xu09z5dRGXq3ny1N9P+Z8rp1MK3qQcfs2USb/V3IayofvNmPTrCUcjTM9Lo1DX67lpMmTvkWjRjRITjYZF1h0+GXnIO+/YWBm4CWiEhOI+GcX7/e7qw0X4o6yZPYmmr/7IUOc7vNlLoXrU36scalbm5W/DUEdNVn+as9QACoxoHsNtn97mu8zGrF6WBXWrTPQoWdhgy9NnWd/WkeG2mX9r+GRp4Zye8+eUnoP8AWWvbKWJj7HOL7zB1Z9PAZdfru1eYYWR31YsN+CAT2KKh8ZHF79BYHmJqFaQ/q+NJc1Px/lnyPf41F3MyMfX8qFXDvluf6RkUSb/F/w/WlUZPnW0OWF57nt60tYvokMw3dTJONe6ExRcyQLIYQQQojyVS6VVhUTQxzxxMUBKokbf7zH6/uq0jLvfnFxJBBDdLTpay12Mm3gTDYHXiU6KY0My+o41ndAc/0GkbmOtsfe/iyH/owkKVbPmmWbydvmonF8nPnzHmb77EUcisla24RGSR8z6sW1HLoeR2L0BXa8u5JzTz2V5/UvBYev4uNJII7Y2MJfN5Pf+WXExhKf59is/SIjM4CWDB1+i9kPt8Pt8eE8P2kG85b9xNEIk4loYv7io9nbeXjefB53LPkjuYqNJZ4YoqLyP4+yvj5lISMhjXjSiDVpwVN30kgglchYBdRk3DBYvvAK/tdTSUxNJ+x8KHOWXCVrrlvbHnWof+A2DZ5xYXBbO2y1dXiiuXnxJ5/1ZU+EFiuTdRYdO9HhuC/rzyZlpic+njvEF1h+Ct9+jatXK1O1cgaJsdc5si2AEM0/bFr4f3kqjS0Y1fkgP2Y8Rtc8RUTFxBBPQvb9eXP/+7zpX4UWedMRF8cdYomOMU3Hb8wcMoetx68RY7z+deo7oLlxM8+PErWxr63n8MEokmL/Yd3KLWben5hfvltOZUnbLXj9GnvXpthf5rG13RKm5j2pbAaC/IPuS5kUQgghhBBFKIWxtcXkq4aDIs9iO3GnyT5H1AzXPPu4zlBHlFJKnVbze7dWXTq2UPVqVFaWVraqQYenlffevFOmpKmTK4eqZrbVVK1GA9SHBwuZkeX2H+r9t3/MnsjlD+9R6uVXnlHdXWsqaztX1XnMUvX3XRPD5Bf+BTW/bZ5027ykdt8VYUHnZ5I32edruu9w5auuqtX9OqrXD8Sq9ORYFXb5lAr45gXVXPeuOqWUUuqG+uEtL7XvtrnXIz/5XSPTSZPu8/UpNTfV8I7bFR23K4acNaY3Ws0YYlzX8WjmOaYnqb1fH1Ndntylqj2ySzV/9azaFmo6E1e8mj/5pNqTopRKuKae8w5XaWbF76dGWVkpKysrNfKHROO6aPXFoMx1VlZD1bguWX8bl1wTBV1UCwrdrpRSqSpo3XOqo1NtVbtxXzXn1yNq7ZNOynnoGhWSJzVxG2cpryN5ZxjLSaPp4vjKbyb7BKrZzfPs03y2caKtM2rBgI6qZ/eHVUNtTVXD1lE17faM+mifIU88aerU6uGqtWNtVaflYLXokLn3ZzHLd+JxtXDsVLUt3GRd2DY1dexH6nhigUcpsyejEkIIIYQQhSqNiZg0SqnCmwNFBePPq3WeI2rhVpY+2wZ7TST6LbN46m0tG0MW07m8kycquHRuXzxPskMG62f/ylOfz7yrBfWBE/s3SxZf5lmvUThzgw1zf6LxjDfoUquwg7YwutGfTLuymG73K51CCCGEEA+gkJAQXF1d7ykMqbT+C0Xs+4gpb/mw++QN7lS2w6XtQCYvWsGUbjblnTRR4Z3kgy4DWRHXjXd+3MCUdtblnaAKagvTp9iwZEXfijLwXwghhBDiX0kqrUIIIYQQQgghKqzSqLRKI4IQQgghhBBCiApLKq1CCCGEEEIIISosqbQKIYQQQgghhKiwpNIqhBBCCCGEEKLCkkqrEEIIIYQQQogKy7K8EyD+vZRSpKamkp6eTnlMQq3RaLCwsKBy5cpoNJr7Hr8QQgghhBCi7EmlVZSIUoqkpKRyqayapiEtLY309HSsrKyk4iqEEEIIIcQDSLoHixJJTU0t1wqrqawWXyGEEEIIIcSDRyqtokTS09PLOwm5VLT0CCGEEEIIIUqHVFpF0eIDWea1gesmq+6llVXv5423jz+GQvcy4O/jjbef3qwwK0qr7/1xnQ1eyzgWX97pEEIIIYQQouxJpVUULuUsy6d8R+NJo6hfKgEaiIgolYD+w+ozyqMx305dwVnpFS2EEEIIIR5wD1ilNYiNc2fzYs8pbC3R8ZsYodGgyV4sqa51of3QWWy9/F/sfprK8QWzCBrhxVDH0gpTi5uHJ54ebmhLK8hCJEWn8cUH8ewo9ZCT2bb7JjM3XqGPVzB+Be6XwFsrb3C0tKOvOxQv9zPMWnAcqbcKIYQQQogH2QNWaYWM2BP8fiCUtBIdPYKNUWsYQD8+N6ShUmMJOfgtL1j5MnbCam6UclorvMurmH5wEO8NtinvlJRABuveMdDwxWjeCyy7rsPVK6dx+XYGGQXuUZmWTazKpIJuM2Qugw5MZ/XlMghcCCGEEEKICuIBq7S2YtTS/9H1HkKoZGtLLWyxt7cAy2pom/dh2urZdD56lNOlls6K4ejbb7OlkO0nvv6KasNH4mR2iHr8vL3x8c89WjXvGNZ8x7Tq/fD29s5Z/ILyhG0c41rkWNgslZjwgZYb39Sgp9npL46qPDnACa+ntXQpdL8qjB9kT8MSxvL3/11nU4FbnRjpbs1X35wsYehCCCGEEEJUfA9YpbWMJCSQUL8+zuWdjtKSkUTYkZXM//ZKITtdYucuC3r3LrV+wQXT++Htp0fn7omnZ+biTgAB5tVOC2VRS4PtvQdTIump6Rhik/A/Gss/xT1YZRAacou5h1IK3c2xd280O3cija1CCCGEEOJBVU6V1iQubJ7Dkx2bYF+9OtoWA5i1/RqZnTjTCN72Dk+2r4+NlRW16ndg9OoTJJt9fKaM0N/xcm9H3erW1HLuyPhvz5E9KlVFcnDxGDo3qk0tRx2DZm/jar4DA1OJvvAbH845wOOrp9PGzPRFHVzG+F7NqVOjKlY1tbi27kr7EZ/lzL5rdvx5HWfp033p2uxlfji5mmfb1UXrpKPvpLWcigPYyyt1rbG2Hm3Sgpp33THm6Oxo5PYmv93eyhjrvPtnCSEkxAkn85tZS0iPn58ebS8P3HU5a3XuHvTK1af2/o6FvXd38Fx0moc+1NPnWwNn8myNunKL8Z+eoc7MY1i9eRLXBf/Qfl2EsYzcYabXcZwWX2NnQhQjpwaimXo5/xZXZ2ecQ4IJzjcNWxid77UVQgghhBDi36NcKq23fJ+n5/RTPPLBDs5FRHJ550jOTvZmPwBHWDbjAD2+PEpYbAyXfurP6Tc/5Q+zjwc4y1ef/EXLmRs5c8vAmeVt2PvGUgKMW0M+f5YJf/ZgmX8IYee24hHvxTDvkyaV3s2M1GjQaKpg1/ldokd9wtuPZlWVikrfIbyeWUmVaVs4cyuO6Gsn2f3lW4yom8Yts+MvSCMG/a8jXD/A976VmLb9IlfPbmJi0mJGeR0ghb58pl9J31zH9OWzc6vol/1/BxaeSyQx8QeGMYwfEhNJTPyRp++KS6GUBk2RabpHhggiAAeHf0dV1HzVWOjZjnBvV4betS0Br3W3qNKnCWc+bE/0+63YPaYuI2oqYxmpxifzOqKWN2Y4dvguz/x7RL7xqELKTS/e3fUuvUrnhIQQQgghhCgXlvc/yot84R3AsHWXmD2gWuaqRmNZ/fsQMjuidmfphT8gPYbLf//OgRO30CTEE2/28QCtmPDJu4zMqnENG0SnEb7GsZBBfLkikcl7J9OjLkALhi14jVWdN3JmXltja+pwfNUmRqQlEHHxL9bNfJInQ7ewe1IzM9JnT4MG6ey7eIkroU50aOJM867OeGYPtDUn/oLY0vKJHjTmKiPe96BHJYCHGOPlwcqB2znzySN0sKtNrTxHVbKxpWbRFyYPV1xdb3IzFEpwsMhioaHyXSstaWAH+yKSuRJbhQ7ayjR3tcXTtQTh3wwl1MUFl3w3amnl9qD9GCCEEEIIIf5ryqGl9QIXLrTnkUeqmayrjkszJ6oa/7tzZDGDmj/EEM+v8b8QlWcm4KKPBw0a0yZCCwsssv8JJjj4AFPqmbzaxuYldgfn08XSsjoOLfsz2+d/xC9awzGz0teMGXv2MK32EVZPcqNpk+6M9vyRoIQSxF+gSlQyvXKOjtSNiMhuyS0dTejXN4mAYg0sdUCrBYOhGC9i1TrgAERE5I0nAkMpjGmtmKoyY3IzplW/w+qfztHU6x9G74gkqPDhq/mKCAggpV9/mpR+IoUQQgghhKgQyqHS6oSTUwghIbnXxpw9axzPd57FE31ouu4sQXt9WfPpOB4q1vFFccHFpScrwxRKmSzJ3+fTjdOoShWqGAzGltqi0gdUa0T/l+fz9e7TXDm1kVfr+fJU3485X9L4i6DOn+N8gwY0AECDhnTSTV8rm5KSz7s8c3f9zYiMJDrP9i4vPM9tX1/CzE6JFgcHQK9Hn7VK74efvpBD0KHTgSFgM6aTDuv9/Mh9WHFnD67gqlSlfw8nvn6tFVfeasyrtaJ4akW4sYzkyHWNEtKIyrU1DN9NkYx7oXPZd+MWQgghhBCinJRDpbUNY5+vyqrXvNh1LoKExBgu/PYhr31zBTsArhISUhmryukkxl7j8Jb9BGuC2PiBn/GBvvDjM6KjiSOO2NickX4qLo4EYoiMzAAeYtxExfLXluN/KZLElDuEndzEnNfXcgVQsbHEEZ95vEohNuQgq15dRNBjj9HJrPTtZNrAmWwOvEp0UhoZltVxrO+A5voNIqHI+EHPkt71cO63nHMF5uER1n+6k38i4oi59BvvTVtL7fGjaQWAI3UdD+O3Xk90cjKxVw/z9TI/rnCEde9uJ2e+4NrY19Zz+GAUSbH/sG7llrsrgy2nsqTtFrx+jTX76mZOoJT56htvb2+89bpcEyzlf4wn7joDAT45r7zR6/JOxFQyccHphJDOsbMZJGUXiVMseqQ+TZ5dz817DF8lpRNPOlF3CtienEEC6UQnmq6NZdqq62y+lkJ0qiKjUiUcbS3RRKcYy0gWS+yrJ3LochpJSUms2R+d6xrF/jKPre2WMLVFQakzEOQf9GBU8oUQQgghxH+XKg8pIWr7O0+pdi52qlrNeqrdiE/Uoeisjanq7JpnVWv7aqqac0818+fDyudxe6V97HMVXOTxvmo4KEDhOkMdUUopdUTNcDWuY7jyVUqptFC1d+EY1aWxVlWrZq+aD5ihtoWk5z4eFFiqGo7NlNuEFepwpLnpO63m926tunRsoerVqKwsrWxVgw5PK++9ETnnX2D8SikVpBa71VV13RaroHwzz0+NshqlPvv5TdW7kb3SurRXT7/7i7qemrU9Q136aZLq2aSOsrWrp9o8PkNturhRvdpppJr2wTZ1OScR6tTq4aq1Y21Vp+VgtehQbP7XKvG4Wjh2qtoWnnt1QkJChVtyS1dfekYox2Emy/QE4/lHq4MLBqh69hPVrvzP2gyRaviUo4pcy6XM8pWZQ2rG3Dzb514zlsk7av6ys6rLojOq3sxAZfnGcdVg0UXlfT41TxwZ6qT/BdVs1jFVa9559eHltJxNYdvU1LEfqeOJhaUxs6z4lfgchRBCCCGEuDfBwcFF71QEjVKq6ElrRYWh4r7hqTobGHr9Z/5nf58aymP/ZsniyzzrNSr7XbWJiYlUpKKj0WiwtrY2/4ArS+g7w4HNfuOMLfz/JjfYMPcnGs94gy55Z93KZQujG/3JtCuL6Xa/kiaEEEIIIYSJkJAQXF1LMuNoDqm0/qvs5ZW6g/k6BuBRVoX9wos25ZOSlJQU0tLSit7xPrG0tKRKlSpm7n2Nn978DKtpC3iqfvFHg2qmBhb7mNKklnc0c88tTJ9iw5IVfcvrhcxCCCGEEOI/TiqtotwopUhKSqoQra0ajQYrKys0GpmOSAghhBBCiIqkNCqt0gAjSiSromhpaVlulUWNRoOlpaVUWIUQQgghhHiAWZZ3AsS/l0ajKUaXXCGEEEIIIYQoPmlpFUIIIYQQQghRYUmlVQghhBBCCCFEhSWVViGEEEIIIYQQFZaMaRUlppQiNTWV9PT0cplFWKPRYGFhQeXKlWUiJiGEEEIIIR5QUmkVJVIRXnmjlCItLY309HSZQVgIIYQQQogHlHQPFiWSmppaId7RCjktvkIIIYQQQogHj1RaRYmkp6eXdxJyqWjpEUIIIYQQQpQOqbSKosUHssxrA9dNVt1LK6ve9OaVZgAAGCRJREFUzxtvH38Mhe5lwN/HG28/vVlhVpRW3/vjOhu8lnEsvrzTIYQQQgghRNmTSqsoXMpZlk/5jsaTRlG/VAI0EBFRKgH9h9VnlEdjvp26grPSK1oIIYQQQjzgHrBKaxAb587mxZ5T2Fqi4zcxQqNBk71YUl3rQvuhs9h6+b/Y/TSV4wtmETTCi6GOpRWmFjcPTzw93NCWVpCFSIpO44sP4tlR6iFfZtvCd5j56mj6NJmAX4H7HeGt/m9xtLSjrzsUL/czzFpwHKm3CiGEEEKIB9kDVmmFjNgT/H4glLQSHT2CjVFrGEA/PjekoVJjCTn4LS9Y+TJ2wmpulHJaK7zLq5h+cBDvDbYp75SUQAbr3jHQ8MVo3gssq67DllS3iuLy5VgyCtzHgZY9W5ZJBd1myFwGHZjO6stlELgQQgghhBAVxANWaW3FqKX/o+s9hFDJ1pZa2GJvbwGW1dA278O01bPpfPQop0stnRXD0bffZksh2098/RXVho/EyewQ9fh5e+Pjn3u0at4xrPmOadX74e3tnbP4BeUJ2zjGtcixsFkqMeEDLTe+qUFPs9NfHI15cs48vJZMpEuh+zVk/LzxNCxhLH/PmsWmArc6MdLdmq++OVnC0IUQQgghhKj4HrBKaxlJSCChfn2cyzsdpSUjibAjK5n/7ZVCdrrEzl0W9O5dav2CC6b3w9tPj87dE0/PzMWdAALMq50WyqKWBtt7D6ZE0hNjMISex//7nfxT3IMzkgg9/Clzvyq8GdWxd280O3cija1CCCGEEOJBVU6V1iQubJ7Dkx2bYF+9OtoWA5i1/RqZnTjTCN72Dk+2r4+NlRW16ndg9OoTJJt9fKaM0N/xcm9H3erW1HLuyPhvz5E9KlVFcnDxGDo3qk0tRx2DZm/jar4DA1OJvvAbH845wOOrp9PGzPRFHVzG+F7NqVOjKlY1tbi27kr7EZ/lzL5rdvx5HWfp033p2uxlfji5mmfb1UXrpKPvpLWcigPYyyt1rbG2Hm3Sgpp33THm6Oxo5PYmv93eyhjrvPtnCSEkxAkn85tZS0iPn58ebS8P3HU5a3XuHvTK1af2/o6FvXeBeHZsyEOt2/9/e/caV1WV/3H8c/RIiOUNCESF1DTJ+k9pWaOmhTrllOUFR83p5ujYdBELyyayYpJyHLE0LzlespluikKjU2M3Z5K0zMo04eSdY6YkiHCADgGH9X8AKBBwjogexO/79doPzt57rfXb7PXAn+uyufH3S9lZ5WrtfeRLpnZuTsj1j7A+cw2jLBYslsjqR1zbt6e9PY20amNIYmy171ZERERE5NzhlaT1aMLd9Juyg74z/s2ujCz2rx9FykNxfALAVuZGb6LPsi9Jd+Swb+Ugvn3sJf7rcXmAFF6d/Rndp65i59FMds67kg2Pvkhy2VX7K6MZ/2kf5m60k77rHSblxTIsbnuFpLc8UfChzbXTyR4zmydvKk+V3MX3ObG/m49PVBI7j+aS/f12Plz2ZyKDiznqcfs16cSQib3g0CbeSGhC1Lq9HExZzYSCeMbEbqKQCBbY5hNRqUwEC3YtZOCJ3z2ZucuJ0/kmwxjGm04nTudbDP9FWwZjLFjcxnSaMjPIAAIDz41U1HO9mJl6nB/TlzL0F9fc9ZFrmJ1mMCaBkYwkwRiMWU1kte2YWvrNDUx/fzo31M8DiYiIiIh4hfXsN7mXv8clM2z5PqYN9is91Wkciz66jdKJqL/mxT3/BVcO+7/4iE3fHMWSn0eex+UBLmf87OmMKs+4hg3hmsiEsrWQqSx72clDGx6iTzDAZQx74UEWXruKnc/+qmw0dSQJZjWRxflk7P2M5VNv5/YjSXx4f1cP4vOnY0cX/9u7jwNHQujZpT3drmtPzImFtp60X5PWdP9tHzpzkMi/TKJPE4Ae3Bk7ifm/WcfO2X3p2aYtLauUatKqNRe5fzFVhBEWdpjDR6AOhaVcs2Y0+8VJd33kFBw+wpHQUEKrvRjA5f0b238GiIiIiMj5xgsjrXvYs+dq+vb1q3CuBaFdQ7ig7NdPW+MZ0q0Ht8WsYOOe41V2AnZfHixYKg4RNm1K0xM/0khL28TD7Sp82qbVH/gwrZopltYWBHYfxLTFE8mbtYSvPYqvK9Eff0xU260sur8/l3b5NWNj3iI1vw7t16gJTSq+uaAggjMyTozk1o8uDIwoIPmUFpYGEhAAmZmn8CHWgEACgYyMqu1kkFkPa1obJnd9xHMZyckUDhxEl/oPUkRERESkQfBC0hpCSIgdu73y2ZyUlLL1fLuJn7CYS5enkLohgSUv3UWPUyrvTiihof2Yn24wpsLx8xvVTOMs4+ODT2Zm2Uitu/gAv04M+uNzrPjwWw7sWMUD7RK4I+Jv7K5r+26Y3bvY3bEjHQGwYMGFq+JnZQsLq/mWZ+WpvyVZWWRXud773rs5lpBAuseRBBAYCNhs2MpP2RJJtNVShHDCwyEzeQ0VNx22JSZSudip7h7cwNXaR8pVeUfHjnG80vV0ElZncde91575adwiIiIiIl7ihaT1SsbdfQELH4zl/V0Z5Dtz2PPB8zz42gHaAHAQu70Zvs1cOB3fsyXpE9IsqayakVj2D/ray5dkZ5NLLg7HyZV+JjeXfHLIyioBenDXBMO8B+excV8WzsKfSN++miceWcoBwDgc5JJXWt4U4rBvZuEDs0i9+Wau8Si+9UT9ZiprvjpIdkExJdYWBHUIxHLoB7LAbftgY86AdrQfOI9dNf4Nt/L6S+v5LiOXnH0f8HTUUtreM5bLAQgiOGgLia/byP75ZxwHt7BibiIH2Mry6es4uV9wW/zb2tiy+TgFju9YPj/pl8lg98nM+VUSsf9xePx2SzdQKv30TVxcHHG28EobLFVfJoYR4ZkkLz75yRtbeNWNmOomN82FHRdfp5RQcKJL7GBW3w50Gf06h0+zfuNwkEcOx49Xv7K0vO9lZ1e87q6PlPPH3z+Fzz/NosBhY8ncNZXekeO9Z3nnqjlMvqym6DJJ3ZjaOJJ8ERERETl/GW8otJt1T91hrgptY/wuameuipxtPs8uv1hkUpaMNlf4+xm/9v3M1He3mMW3+JuAm18xaW7LJ5iRYABDWLTZaowxZquJDis7x0iTYIwxxUfMhpl3mt6dA4yfn7/pNjjarLW7KpcHA1ZzYVBX03/8y2ZLlqfxfWueG3CF6d3rMtPuwmbG6tvadOw53MRtyDj5/DW2b4wxqSa+f7AJ7h9vUqv94yWaMb5jzIJ3HzMDOvmbgNCrzfDp75lDReXXS8y+lfebfl0uNq3btDNX3hJtVu9dZR64ZpSJmrHW7D8ZhNmxaKS5Iqitubj7rWbW547q35Vzm5k5brJZ+2Pl0/n5+Q3uqMxllsVkmKBhFY4p+WXPn202vzDYtPOfYN6v/qk9ULWvVOhfxpjK/a5qn/Sgj5S9o+3zh5qurf1My06DzfObK7yj9LVm8ri/mm3O2mIs7SuJdX5GEREREZHTk5aW5v4mNyzGGPeb1kqDYXJf446L32booXeZ6H+WBsodXzAnfj+jY8ec+Fat0+mkIXUdi8VC8+bNPS9wYA4R0YGsSbyrbIT/XPIDbz+zks7Rj9K76q5blSQxttOnRB2I5/qzFZqIiIiISAV2u52wsLDTqkNJ6zllA38KvpUVOQA3sTD9Pe5r5Z1ICgsLKS4udn/jWWK1WvHx8fHw7u9Z+dgCfKNe4I4OjXk1aBJTHm7FnJcjvPVBZhERERE5zylpFa8xxlBQUNAgRlstFgu+vr5YLI05ARUREREROffUR9KqARipk/JE0Wq1ei1ZtFgsWK1WJawiIiIiIo2Y1dsByLnLYrGcwpRcERERERGRU6eRVhEREREREWmwlLSKiIiIiIhIg6WkVURERERERBosrWmVOjPGUFRUhMvl8souwhaLhaZNm9KsWTNtxCQiIiIi0kgpaZU6aQifvDHGUFxcjMvl0g7CIiIiIiKNlKYHS50UFRU1iG+0wskRXxERERERaXyUtEqduFwub4dQSUOLR0RERERE6oeSVnEv7yvmxr7NoQqnTmeU1ZYYR9zijWTWelcmGxfHEZdo86jOhjLqe3Yc4u3YuXyd5+04RERERETOPCWtUrvCFOY9/E863z+GDvVSYSYZGfVS0XmsA2MmdeYfk18mRbOiRURERKSRa2RJayqrnpnGff0e5p06lV9NpMWC5cRhpUVAKFcPfZx39p+P00+L2PbC46RGxjI0qL7qDKD/pBhiJvUnoL6qrEVBdjF/n5HHv+u95v2snfkUUx8Yy41dxpNY431b+fOgP/NlfTcfPJTYETt5/IVtKG8VERERkcaskSWtUOL4ho82HaG4TqUjWXV8CYMZyCuZxZgiB/bN/+Be3wTGjV/ED/Uca4O3fyFTNg/h6VtbeTuSOihh+VOZXHJfNk9/daamDltp4Xuc/fsdlNR4TyDd+3U/Iwl6q9ueYcimKSzafwYqFxERERFpIBpZ0no5Y16cyHWnUUOT1q1pSWv8/ZuC1Y+AbjcStWga1375Jd/WW5wNw5dPPklSLde/WfEqfiNHEeJxjTYS4+JYvLHyatWqa1irXdNqSyQuLu7kkZhape6yNa5u18KWa8L4GQH88NqF9PM4/lPRmdufeJbYORPoXet9l3DPs/dwSR1b+eLxx1ld49UQRo1ozquvba9j7SIiIiIiDV8jS1rPkPx88jt0oL2346gvJQWkb53Pc/84UMtN+1j/flMGDKi3ecE1syUSl2gjfEQMMTGlxwiSSfYsO61V05YWWp9+NXXicuaQeWQ3G99Yz3enWrikgCNbXuKZV2sfRg0aMADL+vVosFVEREREGisvJa0F7FnzBLf36oJ/ixYEXDaYx9d9T+kkzmLS1j7F7Vd3oJWvLy079GTsom/42ePypUqOfETsiKsIbtGclu17cc8/dnFiVarJYnP8nVzbqS0tg8IZMm0tB6tdGFhE9p4PeP6JTdyyaApXehjf8c1zueeGblx84QX4XhRA2BXXcXXkgpO773rcflXbeHF4BNd1/SNvbl/E6KuCCQgJJ+L+pezIBdjAn4Kb07z52AojqFXPfc0T4W3o1P8xPjj2Dnc2r3p/OTt2ewghng+z1pGNxEQbATdMYkT4ybPhIyZxQ6U5tWd3Lezp+4qYXpfQ44qrufH3S9lZ5WrtfeRLpnZuTsj1j7A+cw2jLBYslsjqR1zbt6e9PY20amNIYmy171ZERERE5NzhlaT1aMLd9Juyg74z/s2ujCz2rx9FykNxfALAVuZGb6LPsi9Jd+Swb+Ugvn3sJf7rcXmAFF6d/Rndp65i59FMds67kg2Pvkhy2VX7K6MZ/2kf5m60k77rHSblxTIsbnuFpLc8UfChzbXTyR4zmydvKk+V3MX3ObG/m49PVBI7j+aS/f12Plz2ZyKDiznqcfs16cSQib3g0CbeSGhC1Lq9HExZzYSCeMbEbqKQCBbY5hNRqUwEC3YtZOCJ3z2ZucuJ0/kmwxjGm04nTudbDP9FWwZjLFjcxnSaMjPIAAIDz41U1HO9mJl6nB/TlzL0F9fc9ZFrmJ1mMCaBkYwkwRiMWU1kte2YWvrNDUx/fzo31M8DiYiIiIh4hfXsN7mXv8clM2z5PqYN9is91Wkciz66jdKJqL/mxT3/BVcO+7/4iE3fHMWSn0eex+UBLmf87OmMKs+4hg3hmsiEsrWQqSx72clDGx6iTzDAZQx74UEWXruKnc/+qmw0dSQJZjWRxflk7P2M5VNv5/YjSXx4f1cP4vOnY0cX/9u7jwNHQujZpT3drmtPzImFtp60X5PWdP9tHzpzkMi/TKJPE4Ae3Bk7ifm/WcfO2X3p2aYtLauUatKqNRe5fzFVhBEWdpjDR6AOhaVcs2Y0+8VJd33kFBw+wpHQUEKrvRjA5f0b238GiIiIiMj5xgsjrXvYs+dq+vb1q3CuBaFdQ7ig7NdPW+MZ0q0Ht8WsYOOe41V2AnZfHixYKg4RNm1K0xM/0khL28TD7Sp82qbVH/gwrZopltYWBHYfxLTFE8mbtYSvPYqvK9Eff0xU260sur8/l3b5NWNj3iI1vw7t16gJTSq+uaAggjMyTozk1o8uDIwoIPmUFpYGEhAAmZmn8CHWgEACgYyMqu1kkFkPa1obJnd9xHMZyckUDhxEl/oPUkRERESkQfBC0hpCSIgdu73y2ZyUlLL1fLuJn7CYS5enkLohgSUv3UWPUyrvTiihof2Yn24wpsLx8xvVTOMs4+ODT2Zm2Uitu/gAv04M+uNzrPjwWw7sWMUD7RK4I+Jv7K5r+26Y3bvY3bEjHQGwYMGFq+JnZQsLq/mWZ+WpvyVZWWRXud773rs5lpBAuseRBBAYCNhs2MpP2RJJtNVShHDCwyEzeQ0VNx22JSZSudip7h7cwNXaR8pVeUfHjnG80vV0ElZncde91575adwiIiIiIl7ihaT1SsbdfQELH4zl/V0Z5Dtz2PPB8zz42gHaAHAQu70Zvs1cOB3fsyXpE9IsqayakVj2D/ray5dkZ5NLLg7HyZV+JjeXfHLIyioBenDXBMO8B+excV8WzsKfSN++miceWcoBwDgc5JJXWt4U4rBvZuEDs0i9+Wau8Si+9UT9ZiprvjpIdkExJdYWBHUIxHLoB7LAbftgY86AdrQfOI9dNf4Nt/L6S+v5LiOXnH0f8HTUUtreM5bLAQgiOGgLia/byP75ZxwHt7BibiIH2Mry6es4uV9wW/zb2tiy+TgFju9YPj/pl8lg98nM+VUSsf9xePx2SzdQKv30TVxcHHG28EobLFVfJoYR4ZkkLz75yRtbeNWNmOomN82FHRdfp5RQcKJL7GBW3w50Gf06h0+zfuNwkEcOx49Xv7K0vO9lZ1e87q6PlPPH3z+Fzz/NosBhY8ncNZXekeO9Z3nnqjlMvqym6DJJ3ZjaOJJ8ERERETl/GW8otJt1T91hrgptY/wuameuipxtPs8uv1hkUpaMNlf4+xm/9v3M1He3mMW3+JuAm18xaW7LJ5iRYABDWLTZaowxZquJDis7x0iTYIwxxUfMhpl3mt6dA4yfn7/pNjjarLW7KpcHA1ZzYVBX03/8y2ZLlqfxfWueG3CF6d3rMtPuwmbG6tvadOw53MRtyDj5/DW2b4wxqSa+f7AJ7h9vUqv94yWaMb5jzIJ3HzMDOvmbgNCrzfDp75lDReXXS8y+lfebfl0uNq3btDNX3hJtVu9dZR64ZpSJmrHW7D8ZhNmxaKS5Iqitubj7rWbW547q35Vzm5k5brJZ+2Pl0/n5+Q3uqMxllsVkmKBhFY4p+WXPn202vzDYtPOfYN6v/qk9ULWvVOhfxpjK/a5qn/Sgj5S9o+3zh5qurf1My06DzfObK7yj9LVm8ri/mm3O2mIs7SuJdX5GEREREZHTk5aW5v4mNyzGGPeb1kqDYXJf446L32booXeZ6H+WBsodXzAnfj+jY8ec+Fat0+mkIXUdi8VC8+bNPS9wYA4R0YGsSbyrbIT/XPIDbz+zks7Rj9K76q5blSQxttOnRB2I5/qzFZqIiIiISAV2u52wsLDTqkNJ6zllA38KvpUVOQA3sTD9Pe5r5Z1ICgsLKS4udn/jWWK1WvHx8fHw7u9Z+dgCfKNe4I4OjXk1aBJTHm7FnJcjvPVBZhERERE5zylpFa8xxlBQUNAgRlstFgu+vr5YLI05ARUREREROffUR9KqARipk/JE0Wq1ei1ZtFgsWK1WJawiIiIiIo2Y1dsByLnLYrGcwpRcERERERGRU6eRVhEREREREWmwrK6iLPd3iYiIiIiIiNTB6eacGmkVERERERGRBktrWqXOjIFiF7hc3ouhaVOwNgXtwyQiIiIi0jhppFXqxBgoLPJuwgql7RcWlcYjIiIiIiKNj5JWqZNiV8NJFMtHfEVEREREpPFR0ip14u0R1qoaWjwiIiIiIlI/lLSKe3nbmTcjkUP1VN13SfE8v2QzmbXedYzkJfE8n7S7nlptTA6zcsZituV5Ow4RERERkTNPSavUrvA7Xp6yis4TR9ChXio8Rkbt2aq4FcLoCZfwz0eWkFrk7VhERERERM6sRpa07iLhL7H84cZp/KtO5dfyOx9/rCeOi2nZ7v/oNfxZ/nXgfJx/WsQ3s57FNnIatwXVV53+3DAxmicn9iGgvqqsToEhYXkJAyaWcOn4Em6ebfj0eH02kMa6WXE8/vBEIi57mKQa79tGzC3P8VV9Ng0QfDPPDLcxbda3KG8VERERkcbs/wFJMwQgAbbXMgAAAABJRU5ErkJggg==;" vertex="1" parent="1">
          <mxGeometry x="480" y="40" width="751" height="107.74" as="geometry" />
        </mxCell>
        <mxCell id="b7tUEqrKAt5MrTvn7w7H-3" value="" style="shape=image;verticalLabelPosition=bottom;labelBackgroundColor=default;verticalAlign=top;aspect=fixed;imageAspect=0;image=data:image/png,iVBORw0KGgoAAAANSUhEUgAAAnkAAABBCAYAAACtv7JIAAAgAElEQVR4nO2deVxUVRvHfyQpgoq4grJoKqK4gJZpLpj7Vpnom0tF5pILuZcplpqVS2qlFirkUlYKkqTVq+IukhtpKpgguwqCsgz7Nr/3DwYYhpm5dwBRec/385nPhznPWZ5zznPOfebe51yMSBICgUAgEAgEghrFM49bAYFAIBAIBAJB1SOcPIFAIBAIBIIaiHDyBAKBQCAQCGogwskTCAQCgUAgqIEIJ08gEAgEAoGgBiKcPIFAIBAIBIIaiHDyBAKBQCAQCGogwskTCAQCgUAgqIEIJ08gEAgEAoGgBiKcvKeWy1jUyghGRqpPq0W4/LhVAgAcw9SGano5fYbbj1slgUAgEAj+DxFO3tNM/81IIkESjF6P5x+3PgCAQfBOVenEcKxyetz6CAQCgUDw/4keJ68Q2QkX8fVId/hpkSYHrsXrnZvBrEErjPjqb+Qa0GhB9CF4jHkethZmqG9pjwEzd+B6hnx5ZesvQ8YxTLEZh/3ya8ee0Wp3qoo/LefiL7VcusdHiQOTTMuXt3RHoPwuVhOXsGTQksdwh3A/xmqOj9FY7Fe7S9h82hHkAUCqNwaV5OmGvuZa5sboGQzamqhWfwEi9s5Ajxb1UK/Fi5jlE4XCau/jU0LO3/jh40Vw678Qvz9uXR4Jl7BkwGJcNESeeR273x+CDs3rw6yxHbq7rsDxeEP+BXgkDq5ZhkWzJqB/m3fxa0VVN5jb+MypaE00mPwHSjQ+MQuNDbzrnvHPdkzuaYv6devB0qE7+q04UwX6hcJn+WJM7vM+/CtUXnPfMIZZE1s4v/Ih/CPFCq9+qvv6EYmDn38At94VtZ+qRL//VJ3ocPIeYEt/Y5havYj5fyag3PaVsAduU47jpc2XER+3GnXWfAv5SzwMa+cfQJdVBxFy7z4iTn4Dl7CPMGTWQaTJkle2fnVycNZjJnbeMWSDTkOa8xY8KL6DVvy5+w16FWfROz4xuJUzBvvC01FQXPb2Nqzc4IE+BmhRPTSFQx8HNKn2dsdiPwllqjeGYBC8UpQg92MsBsErxhtDYIM6gZ74NQ1Aw6k4muKFwRiIbQ8v40ysN4ZgCLxTlSCJvNQw/Ln8Zfx7/CRyiqsP/wYTPlFgwel7SAhairzP3OAZXe2dfGpQPryMw6djSsevRtEU7fXauKY8DQdXb0fORC9cjLmP2As78Ub2drw+/Qc8MKhdY5iZpCAyUgFlhXU3lLbwOO2NIQDSr15FpCo1KjgYyRgEr1MeaCunmtRDeG+0Jxp9chr3EsPg825jhJ4NQUoVaKhUXMWxc/EoqFDpsfBR7QVbHxSA+QrEBP2Ad0x8MeldT9ytAv0EhlD91w9mXsfJoIraT1Uh4T9VN9RDQeJ3HABX+mqkX/ukC4dsT1R9y2Ts7Xjm6auoDIGc12sRL6gnxX3FF+tP5hFZ8srWX0ru5aV0bNOKNlr6qJsIfr7yR+bryaF/fC7Tzy9aLXcWj3ruZLhStgIqLnGh22YmGVqsWgnnKrdVDK9weV+6lpuborQvvujB/pvitOTTViaDh1duKLGJ4CUdOdSrdOQSPQeyy8qQCmtZ41H6cIxBa6QmE8DZk3YyVT0pej2fr/cODxtclzZbfdT40hV2tLMfy/15JJlP3zdMCAP0iPumL5+be5YFJSn3uPnND3m+yvSrzJhoKZ/kSRczN/630roJnnwex5rSji7/qbrRG5NXq2lTWJRLvYeAACX69Wuq+m4KmzaWeLZcvptY37sxmvTZiH/LpPfGV0Ffood6UkEB2L696leklLyy9asoDMVa9yN4/ZdPy+aVJA2FRg1hrFMuNT7dMWaMXWn2OwcQaTsWbY0MUkI3zENKRAweVrKawuw0PIgPw5mfDmuM75NBuynTYLzTC6F6c4XCZ4UPQmGGoZ8sUM1zJA4ffhb9+5f+vmzq4oKC339H7CPVWEUVzU+1YmSEqjLPJ4nCHIVeG9cut4VTowzEqGe0sIBF8+Zo/qgVrjKc0KPrv7gaCgAhCL5rboDuCfDzDcco196oVZJmhUkfTEKLqle0asjMRKa1NVo+bj2eBKpp/3nSrx/VgXb/qfqpwMGLMISFWaNZ1s+Y1rMl6tW1QLuhy3Ci3LMKgkpCSV03K4n8jAeIPL8XS5ZexaTt7njOQHnF6ydub1qEc+N/wooX6hrUeyAVYCYOfTAcnW0aon7TdnjZ/WeElzzLkjs+AKDEhcPZ6DW8noE66CZw/nNo1HYetnq7onUDczjOOYjAza+gVf16aPWfH3EXBYg+uAyvOlvD3MQEDay7YYLnVY2YymB4dG8Fx07O6P+mN26UpJ/Gcpfe6GrzDvweBmLdOCc0MzWFhV0vvLcvsnpvSzebiPfsfbH1jO4b8wVh/li70kfDEbyLu3etYW2tlmRlBau4OMTJbjwH4X4f4dXubdDYzAxN2g/Gh4fi1PqfiIBPRsGhcV2YNLLHsCX/RXHIlvT86KM45qgJ3Hetx/PFsYrRan9LtC+lHwBAmYTTq/+DbrYWMLfshDGbriIfQOnJ6bFqMayaafrsq2rsJyXoG7j1tUezenVgUr8J7Dq9COex3+KOTHkREVj3si06OjrBpYyNS8ntMXWTO7qo5Uw+eAScNQVVd8ZI//ykX96CN7pbw7yuGZp1Gol33+oHm/Yf6Ikr1MQYzs4muHo1A0i7jFutB6FnicwPb5iYoLaREcbuLQD2j1eLiQWAaERFtUP79mXdfosuXWADQP/8FyO1fgBl/DGsHOMES7O6aNCyO9x+uFUaN8tkBG2YiBdaN0KD5h0wfPFBxOZr62c+UsOP4ouPzmGY5zx0lqmfpP3Ibr+qScOBeX3Rq1tH2DScCD88xOnPXoF9QzM0d/mqdJ/To5+8/Uef/anFPY7eg4JT7mhipLknVO76UXn7VhE4D5bldNM/PtL2/xSi/0aftluf/hxv3JG93plPv5AHzEi+zh3jbNly5nEDHtkW1w2iUR8u/SOKOQbLK1F/nBcnvrWH90ryGXJLNYALX3iVHvsuMvJBBtPiArlhmBU7fHRR9QjXgPHJOsQ1m24Y3LMidDyuzfuZr8KGb3x/hfE317BH3bZ0877ChMiv2eeZ//BXBnFe2/5cHRzPrNwcJgZ+QEddjzLyfuarZcYmkTeOLGVPdOSIBZ/wx7+iqcjOYJSvG22azeKZchU8use1viTzT7mzwwQ/ZpZ7XAui5KNZ/iAn1h5DH/XH4wV7Odp4PP1lanXfZxybWQ/nmj9DmZSZw7TIbRxh+x5PquR3vYbSqtcSHolMYWp0AD/uY8XB2+4UCSXnRz9pB93YdPA2pjGPURtd2HpeIJUkb62ZwpXXsqXblyGP+MaFli958HBECjMfhtJ32cu0VI1j4cNtHKQxpoUpXhxckqbPvgy1H238xbkt23Kq7w3ez8xldsod3jp/gJ/N/prBsuQalLNxA+WJh7hk0V7GFcpSXgPte4/++fmHS9q143u/hjIxNZGh+6exjc37DNQXP6KlTZ//TmHH+efI47M4ftvWsnoo/+Lc0V8wkiSZxT1Tx3PPneLdy5/jjV/jLzrbk95f9K8fX7rCgcMWfMq9524xKSODMfvdaN24dH1FfzeI7Udv5rlYBTNT/uWBWd3ovPwqlSXl1da/eQ9+4B/BLNn6SduP/vbljL/6/qRrn9JGHu9cOcnj/vPpjDFc7TWDM74L5N30mzzw/SkWBwjp1U/G/iO1P+TFbeNQ8zH0ySXJLPrPGMMN1xXl+1+h60fV2LcvSaYHctWcjbz0sGxhyfnTa/+G8GQ8Oq6Ak/cbJzzrzDW31aY0ZgNfaDGHQQY2XpirYHzIUa4Z2YUjv48wWF6x+hP507wPeTSlOJfhE5Gfr2Fxtz5nZ7uFvETSkPFJ/+VDrvrbgIbLoCsmT1d8mkY/C1IZEfQ7f9jixk46+6/LyRrNvQVqSTpjth6tk0fe4DKnwfRO1N7P3Cse7FCufCDdLYdzd6ZaUuZuDpcd8xnOVV0tOf2oegUZjAm7q/oh8S9XdGpHjyul86+8uoztHJfzZjn9pWIJtVBwlO+2n8bjBeTdLf35TLvFvKK8yRXTN/KOrPal5De4zKENlwSrb9lSempJ02lfhtiPNsK4vmdrjlr9G8/fTtbyw1JKronUuOuRpwRx68ZDjCnQJpSDtrql5ucC59u05fSDUUzPzeK9E/PYwXqeAfFwqjYTtrDPgG95ad1kfhpaXo+LS9y45Q7J/AAuW36CpT7sn3zbdAC3J0s0o3P+pdaPL12h5UdYSR0h/LhDb26OV5Onfc/B9kt5Tb1/JJmfwcSbAVwz0pGDPMNk6idlP1LtVwe+dEV7zjiWoEVmwPho/VvK/kgygz+PacnJf+SQ+ae5dMkh5urU09DrRxXZd8Zlrp65hsHZho5PEbrt3xCeDCevAo9rm6FZMzPUq6d2u755czRPTUWqgTU9U7s+LDsOxmLvaUhd+S0uGSivWP2n8evX6zDEoviY/Tj4wQ/jim8/S9ZaiOT4pKLXdxRjYwObxEQUvaRD7vgocerIHbRyMLBTVUDWpQ0Ybu+IUR67cCY8pQInkWqhVi21r48tZssR0yfnwWtHuFZp7S4D4eriiKZlUq1hbR2HOPVns/HxiG/VCq1ktRmO8HBn9O5tqpZmBtt2LVAHABCBiAh7ODiUjohR+/awj4pClKz6JajVD8O6HsOvZ2Ox96fbaJG9C5uXbcB5m+GqmCOp9qXkMYiJcUDHjhWfUWn7qoz9tMPC48cxt9EleM7oh7ZtemGCxy8IzZQrryJSzmHr7jSMmjsKtrWks8tHan56YOk6Z5ycMxA25k3QZWYoxu5aihcNbaa5E5zuX8aO2Ibo16G8+IXxdji7+xZyj5zAMwNd1OJ6rGFtfQd3yj77RlZsTMnpYv3zL7V+AMAIRuoGUauWWvxfNKKjz+F9K7VXpZhPQUB0NModkDc2Q1OHQVi8bRoy1nnhb1n6SdmPAe0/Ujph4EBtkZSV1U/O/mWGUa49cHCnP+4f8kFW3yGobZDu+tZ/Vdh3OHw2BSLn/iHsDNQ88y1vfHTb/9NHBXTvjOefD8XJk2ouS2wsYm1tYSur/BV4DFiI8+pJhYUozM5Gtix5Zesvej0HSz6+cIUrfEnQ/009ByqKOQWPEetwRS1FGRKCm3Z2KDpOIXd8buLCP8/AwtCQwEoThg1Tt6HtjhCEnvCF19dvwbG6VahCbNymo9kuT+3xGs+8jFWnVsKlTKIdRo0yxqlTpe/NSwkMRGr//mgnq8UWaNEiBjExZVPTQkJUMTt2sLPTkEdHI6bEPipLHQwe1gGHvpyFn5Rz4DmlCXZ8cQLdRhb/WpBqX0puBSureMTHq8nLrD0jGKEQheqvHcvLU/vRUw32Zdoag6avwq6A64i65oNZVr54bcCXCJMrryxZf8Pb6z6GuQ9DS9UOetff3+AfodqRmp8gfLrgARYFRyAlOxNJ/x7BpwObaq9KL13hbLsf+xQvaL+AdpkAh4vfYtXJWhjaR/0y0QG9eiUiIEBdwVT4/fA7ivwgqfmXWj9S2MLWtg+2JGi8wir3J7yiq0jt2qj94IHKCZVhn3rtpwLtVyuV1U/e/lV/lCt6HdmAcV5KDB9kmIunn6qwb1u8tmAuVuz8DFw2EdtuF5SRyRofnfb/9KH3ZciKf24gCmG4eCYB2SWBl2YY/d5oBC2eiu2X7yM9JRQ/rdwB47cmoGOZ8rpOv9ZB7boPEX0zARk5mUi6dQLrZ25EyluTVKcfpeSVrb8sBffuIREJiInKUQV+hmJdr0Zo0lez3mLs4fTys3hwLQbJWZlICv0NH8zehsbvFG8WcscnFrG35DquBpCVhWxkIytL299ZyMyMRUzMszB5thDZijhcOHAa0Uah8Pns13IXQaanIxNpSE0tDYlWKhTIQDoUCpbLl5xctW/8Yloa0jXaL05LSVGlmY/FzJdySg5NFMkzyuiniePk6cjf4I4fbymQEemH+WsTMXt2P5l3kzpj0tt18N3slThyKwmZ2WkIP/oFZu+OUp2kcsTkGQ2xde6XCLybjvR7Qdg43xuNZ00umn/J+ZGyP6DhsGGw/vMEbNynYGTv3mhoNQIjSqL+JdqXlHfBhEn58PzQC8EJmch+eAN7vtiFEJyH15LfEAlLWFr+hf27Q5GSmwtFzF/4fsN+ROKCSq7fvqTtR6r/hzF3yCL4BcciNacASmMzNLduCqM7d5EsS15ZHuD3zefQ1X0MWqnuRuQlHMean6+h6PiU9PyV9FuhQIa6LQOQnh8HvOKaiMVdnNBvmCvenrEQK77Zh8tJxV63/vaL1kc6FIp6cHa2QgfnvjDJzESWxjoDHDDpxXPYoxyOXmUWhjGGuc9G8kZ3fHspEVnpcTj15Xs4Y+uqcgKk9hf960eZmqrST5d9OOKtqcSm2ZtwJiIZ2XlZSPhnPz6a740o1ZiWrH/mQREThO9mrUPo0KGq/wgkpZ+U/ehvvzpgRgYyNcaoFAn9JPcfKftT0WAUXPv9g3+tR2NA+VdrFOlZoeuHlH1LjI1CgQzkITeXQIP++Gr7S9gx5n0cTih29OTOny77l4su/+kxoP0pbhI3u2gEhnZVj61S8NKmSezWwox1Gz3HAXP2MaLcQ/kQrutpQYuX1qs9yy8i99Y+zhnswCZmpmxk58TXlv7GqFz58srWX8whN7MyfXRcfp1kCNf2tKBFz7XU9eY05b3jXDWuO60bmNLcpjNHfPgbY8uE6ckZn0DO6zqbJ3S0IY32mLziPtWZdIAHJtUp97eZmz9DvN5gp8amNG3Zh4v+uMBtwxqzydCtjFav205j/u0W8pJ60HBJDKJ6Xs34g4rG5GkLTnalb4oXB5Z8H0gvVVxl4aXFbA1X+pYppy8WQsm43+azd0szmlr14CyfSBoUVpUXw0PLXqOTrQVN61vRaex6nld/cVpBLP0XDWabhias36ILX//0BO+rgjqk5+c7Sfsjw7lq6DQezyWp2M03p/9ZVn897cuS54Rz75wBbNvYjObtRnBt0E5O7fQKZy73ZwSVvP3zFPawbkCTuo1oP2AO94X/wmmdX+OsFf6MYL4e+5JjP1Lr7zpXuXRij+7taVXvWRqbNKRNt9f5+YkkmXINFDs4xGIaj+sa6nJyHYHzI3eqgvul9w+d9i1rfmLpObA7559TsDBXwYTIazy7+x3ad/hYFVOkr/3Sfb3OpAPM9f2Iy4PV9vquZddq+i8L+PEFbccJ8nnbZy77P2fOug1bc6hHQEnQP/XOvwqd60fm/lIQzxNrJrLHc01oatqY9oMX8mBMoZZxNWa95u3Y793NvJAsVz8Z9qOz/UdNOFd11bAb8ykM0MymRz/p/eeQ9P6g4uEON75/TNuJiMpcP6TsWx9qdanqPzu3pZb1JW/+dNu/FFL+U/UicfBC8OSisZBKFs3jJoBTzJ8M4xYIynOPx7x8eE1RwJyUcP658AXavnmAabLlj5vTnNnUhuO/D2Z8Rh7zMhP4z5632cp2AS9WSf0FTAoL4Z2U6/z83dXlfkALBI+WR23fUtQ8+xdOnkAg+D8iirsmOLJp3do0bdKWLlM9GZxmiPzxk3hyDd/o2ZqN6tamSYPmtO/7Fjf9lSpdUBZ/c3mXBmzQehg3BmdJZxcIqphHa99S1Dz7NyJ1vk1YIBAIBAKBQPCU8nQfGxEIBAKBQCAQaEU4eQKBQCAQCAQ1EOHkCQQCgUAgENRAhJMnEAgEAoFAUAMRTp5AIBAIBAJBDUQ4eQKBQCAQCAQ1EOHkCQQCgUAgENRAhJMnEAgEAoFAUAMRTp5AIBAIBAJBDUQ4eU8tl7GolRGMjFSfVotw+XGrBAA4hqkN1fRy+gy3H7dKAoFAIBD8HyKcvKeZ/puRVPT/h8Ho9Xj+cesDABgE71SVTgzHKqfHrY9AIBAIBP+f6HHyCpGdcBFfj3SHnxZpcuBavN65GcwatMKIr/5GrgGNFkQfgseY52FrYYb6lvYYMHMHrmfIl1e2/jJkHMMUm3HYL7927Bmtdqeq+NNyLv5Sy6V7fJQ4MMm0fHlLdwTK72I1cQlLBi15DHcI92Os5vgYjcV+tbuEzacdQR4ApHpjUEmebuhrrmVujJ7BoK2JavUXIGLvDPRoUQ/1WryIWT5RKKz2Pj4l5PyNHz5eBLf+C/H749blkXAJSwYsxkVD5JnXsfv9IejQvD7MGtuhu+sKHI835F+AR+LgmmVYNGsC+rd5F79WVHWDuY3PnIrWRIPJf6BE4xOz0NjAu+4Z/2zH5J62qF+3HiwduqPfijNVoF8ofJYvxuQ+78O/QuU19w1jmDWxhfMrH8I/Uqzw6qe6rx+ROPj5B3DrXVH7qUr0+0/ViQ4n7wG29DeGqdWLmP9nAsptXwl74DblOF7afBnxcatRZ823kL/Ew7B2/gF0WXUQIffuI+LkN3AJ+whDZh1Emix5ZetXJwdnPWZi5x1DNug0pDlvwYPiO2jFn7vfoFdxFr3jE4NbOWOwLzwdBcVlb2/Dyg0e6GOAFtVDUzj0cUCTam93LPaTUKZ6YwgGwStFCXI/xmIQvGK8MQQ2qBPoiV/TADSciqMpXhiMgdj28DLOxHpjCIbAO1UJkshLDcOfy1/Gv8dPIqe4+vBvMOETBRacvoeEoKXI+8wNntHV3smnBuXDyzh8OqZ0/GoUTdFer41rytNwcPV25Ez0wsWY+4i9sBNvZG/H69N/wAOD2jWGmUkKIiMVUFZYd0NpC4/T3hgCIP3qVUSqUqOCg5GMQfA65YG2cqpJPYT3Rnui0SencS8xDD7vNkbo2RCkVIGGSsVVHDsXj4IKlR4LH9VesPVBAZivQEzQD3jHxBeT3vXE3SrQT2AI1X/9YOZ1nAyqqP1UFRL+U3VDPRQkfscBcKWvRvq1T7pwyPZE1bdMxt6OZ56+isoQyHm9FvGCelLcV3yx/mQekSWvbP2l5F5eSsc2rWijpY+6ieDnK39kvp4c+sfnMv38otVyZ/Go506GK2UroOISF7ptZpKhxaqVcK5yW8XwCpf3pWu5uSlK++KLHuy/KU5LPm1lMnh45YYSmwhe0pFDvUpHLtFzILusDKmwljUepQ/HGLRGajIBnD1pJ1PVk6LX8/l67/CwwXVps9VHjS9dYUc7+7Hcn0eS+fR9w4QwQI+4b/ryublnWVCSco+b3/yQ56tMv8qMiZbySZ50MXPjfyutm+DJ53GsKe3o8p+qG70xebWaNoVFudR7CAhQol+/pqrvprBpY4lny+W7ifW9G6NJn434t0x6b3wV9CV6qCcVFIDt26t+RUrJK1u/isJQrHU/gtd/+bRsXknSUGjUEMY65VLj0x1jxtiVZr9zAJG2Y9HWyCAldMM8pETE4GElqynMTsOD+DCc+emwxvg+GbSbMg3GO70QqjdXKHxW+CAUZhj6yQLVPEfi8OFn0b9/6e/Lpi4uKPj9d8Q+Uo1VVNH8VCtGRqgq83ySKMxR6LVx7XJbODXKQIx6RgsLWDRvjuaPWuEqwwk9uv6Lq6EAEILgu+YG6J4AP99wjHLtjVolaVaY9MEktKh6RauGzExkWluj5ePW40mgmvafJ/36UR1o95+qnwocvAhDWJg1mmX9jGk9W6JeXQu0G7oMJ8o9qyCoJJTUdbOSyM94gMjze7Fk6VVM2u6O5wyUV7x+4vamRTg3/ieseKGuQb0HUgFm4tAHw9HZpiHqN22Hl91/RnjJsyy54wMASlw4nI1ew+sZqINuAuc/h0Zt52GrtytaNzCH45yDCNz8ClrVr4dW//kRd1GA6IPL8KqzNcxNTNDAuhsmeF7ViKkMhkf3VnDs5Iz+b3rjRkn6aSx36Y2uNu/A72Eg1o1zQjNTU1jY9cJ7+yKr97Z0s4l4z94XW8/ovjFfEOaPtSt9NBzBu7h71xrW1mpJVlawiotDnOzGcxDu9xFe7d4Gjc3M0KT9YHx4KE6t/4kI+GQUHBrXhUkjewxb8l8Uh2xJz48+imOOmsB913o8XxyrGK32t0T7UvoBAJRJOL36P+hmawFzy04Ys+kq8gGUnpweqxbDqpmmz76qxn5Sgr6BW197NKtXByb1m8Cu04twHvst7siUFxGBdS/boqOjE1zK2LiU3B5TN7mji1rO5INHwFlTUHVnjPTPT/rlLXijuzXM65qhWaeRePetfrBp/4GeuEJNjOHsbIKrVzOAtMu41XoQepbI/PCGiQlqGxlh7N4CYP94tZhYAIhGVFQ7tG9f1u236NIFNgD0z38xUusHUMYfw8oxTrA0q4sGLbvD7YdbpXGzTEbQhol4oXUjNGjeAcMXH0RsvrZ+5iM1/Ci++OgchnnOQ2eZ+knaj+z2q5o0HJjXF726dYRNw4nww0Oc/uwV2Dc0Q3OXr0r3OT36ydt/9NmfWtzj6D0oOOWOJkaae0Llrh+Vt28VgfNgWU43/eMjbf9PIfpv9Gm79enP8cYd2eud+fQLecCM5OvcMc6WLWceN+CRbXHdIBr14dI/ophjsLwS9cd5ceJbe3ivJJ8ht1QDuPCFV+mx7yIjH2QwLS6QG4ZZscNHF1WPcA0Yn6xDXLPphsE9K0LH49q8n/kqbPjG91cYf3MNe9RtSzfvK0yI/Jp9nvkPf2UQ57Xtz9XB8czKzWFi4Ad01PUoI+9nvlpmbBJ548hS9kRHjljwCX/8K5qK7AxG+brRptksnilXwaN7XOtLMv+UOztM8GNmuce1IEo+muUPcmLtMfRRfzxesJejjcfTX6ZW933GsZn1cK75M5RJmTlMi9zGEbbv8aRKftdrKK16LeGRyBSmRgfw4z5WHLztTpFQcn70k3bQjU0Hb2Ma8xi10YWt5wVSSfLWmilceS1bun0Z8ohvXGj5kgcPR6Qw82EofZe9TEvVOBY+3MZBGmNamOLFwSVp+uzLUPvRxl+c27Itp/re4P3MXGan3OGt8wf42eyvGSxLrkE5GzdQnniISxbtZXn0rFUAAA0dSURBVFyhLOU10L736J+ff7ikXTu+92soE1MTGbp/GtvYvM9AffEjWtr0+e8Udpx/jjw+i+O3bS2rh/Ivzh39BSNJklncM3U899wp3r38Od74Nf6isz3p/UX/+vGlKxw4bMGn3HvuFpMyMhiz343WjUvXV/R3g9h+9Gaei1UwM+VfHpjVjc7Lr1JZUl5t/Zv34Af+EcySrZ+0/ehvX874q+9PuvYpbeTxzpWTPO4/n84Yw9VeMzjju0DeTb/JA9+fYnGAkF79ZOw/UvtDXtw2DjUfQ59cksyi/4wx3HBdUb7/Fbp+VI19+5JkeiBXzdnISw/LFpacP732bwhPxqPjCjh5v3HCs85cc1ttSmM28IUWcxhkYOOFuQrGhxzlmpFdOPL7CIPlFas/kT/N+5BHU4pzGT4R+fkaFnfrc3a2W8hLJA0Zn/RfPuSqvw1ouAy6YvJ0xadp9LMglRFBv/OHLW7spLP/upys0dxboJakM2br0Tp55A0ucxpM70Tt/cy94sEO5coH0t1yOHdnqiVl7uZw2TGf4VzV1ZLTj6pXkMGYsLuqHxL/ckWndvS4Ujr/yqvL2M5xOW+W018qllALBUf5bvtpPF5A3t3Sn8+0W8wryptcMX0j78hqX0p+g8sc2nBJsPqWLaWnljSd9mWI/WgjjOt7tuao1b/x/O1kLT8speSaSI27HnlKELduPMSYAm1COWirW2p+LnC+TVtOPxjF9Nws3jsxjx2s5xkQD6dqM2EL+wz4lpfWTeanoeX1uLjEjVvukMwP4LLlJ1jqw/7Jt00HcHuyRDM6519q/fjSFVp+hJXUEcKPO/Tm5ng1edr3HGy/lNfU+0eS+RlMvBnANSMdOcgzTKZ+UvYj1X514EtXtOeMYwlaZAaMj9a/peyPJDP485iWnPxHDpl/mkuXHGKuTj0NvX5UkX1nXObqmWsYnG3o+BSh2/4N4clw8irwuLYZmjUzQ716arfrmzdH89RUpBpY0zO168Oy42As9p6G1JXf4pKB8orVfxq/fr0OQyyKj9mPgx/8MK749rNkrYVIjk8qen1HMTY2sElMRNFLOuSOjxKnjtxBKwcDO1UFZF3agOH2jhjlsQtnwlMqcBKpFmrVUvv62GK2HDF9ch68doRrldbuMhCuLo5oWibVGtbWcYhTfzYbH4/4Vq3QSlab4QgPd0bv3qZqaWawbdcCdQAAEYiIsIeDQ+mIGLVvD/uoKETJql+CWv0wrOsx/Ho2Fnt/uo0W2buwedkGnLcZroo5kmpfSh6DmBgHdOxY8RmVtq/K2E87LDx+HHMbXYLnjH5o26YXJnj8gtBMufIqIuUctu5Ow6i5o2BbSzq7fKTmpweWrnPGyTkDYWPeBF1mhmLsrqV40dBmmjvB6f5l7IhtiH4dyotfGG+Hs7tvIffICTwz0EUtrsca1tZ3cKfss29kxcaUnC7WP/9S6wcAjGCkbhC1aqnF/0UjOvoc3rdSe1WK+RQEREej3AF5YzM0dRiExdumIWOdF/6WpZ+U/RjQ/iOlEwYO1BZJWVn95OxfZhjl2gMHd/rj/iEfZPUdgtoG6a5v/VeFfYfDZ1Mgcu4fws5AzTPf8sZHt/0/fVRA9854/vlQnDyp5rLExiLW1ha2sspfgceAhTivnlRYiMLsbGTLkle2/qLXc7Dk4wtXuMKXBP3f1HOgophT8BixDlfUUpQhIbhpZ4ei4xRyx+cmLvzzDCwMDQmsNGHYMHUb2u4IQegJX3h9/RYcq1uFKsTGbTqa7fLUHq/xzMtYdWolXMok2mHUKGOcOlX63ryUwECk9u+PdrJabIEWLWIQE1M2NS0kRBWzYwc7Ow15dDRiSuyjstTB4GEdcOjLWfhJOQeeU5pgxxcn0G1k8a8Fqfal5FawsopHfLyavMzaM4IRClGo/tqxvDy1Hz3VYF+mrTFo+irsCriOqGs+mGXli9cGfIkwufLKkvU3vL3uY5j7MLRU7aB3/f0N/hGqHan5CcKnCx5gUXAEUrIzkfTvEXw6sKn2qvTSFc62+7FP8YL2C2iXCXC4+C1WnayFoX3ULxMd0KtXIgIC1BVMhd8Pv6PID5Kaf6n1I4UtbG37YEuCxiuscn/CK7qK1K6N2g8eqJxQGfap134q0H61Uln95O1f9Ue5oteRDRjnpcTwQYa5ePqpCvu2xWsL5mLFzs/AZROx7XZBGZms8dFp/08fel+GrPjnBqIQhotnEpBdEnhphtHvjUbQ4qnYfvk+0lNC8dPKHTB+awI6limv6/RrHdSu+xDRNxOQkZOJpFsnsH7mRqS8NUl1+lFKXtn6y1Jw7x4SkYCYqBxV4Gco1vVqhCZ9Nestxh5OLz+LB9dikJyViaTQ3/DB7G1o/E7xZiF3fGIRe0uu42oAWVnIRjaysrT9nYXMzFjExDwLk2cLka2Iw4UDpxFtFAqfz34tdxFkejoykYbU1NKQaKVCgQykQ6FguXzJyVX7xi+mpSFdo/3itJQUVZr5WMx8Kafk0ESRPKOMfpo4Tp6O/A3u+PGWAhmRfpi/NhGzZ/eTeTepMya9XQffzV6JI7eSkJmdhvCjX2D27ijVSSpHTJ7REFvnfonAu+lIvxeEjfO90XjW5KL5l5wfKfsDGg4bBus/T8DGfQpG9u6NhlYjMKIk6l+ifUl5F0yYlA/PD70QnJCJ7Ic3sOeLXQjBeXgt+Q2RsISl5V/YvzsUKbm5UMT8he837EckLqjk+u1L2n6k+n8Yc4csgl9wLFJzCqA0NkNz66YwunMXybLkleUBft98Dl3dx6CV6m5EXsJxrPn5GoqOT0nPX0m/FQpkqNsyAOn5ccArrolY3MUJ/Ya54u0ZC7Him324nFTsdetvv2h9pEOhqAdnZyt0cO4Lk8xMZGmsM8ABk148hz3K4ehVZmEYY5j7bCRvdMe3lxKRlR6HU1++hzO2rionQGp/0b9+lKmpKv102Ycj3ppKbJq9CWcikpGdl4WEf/bjo/neiFKNacn6Zx4UMUH4btY6hA4dqvqPQFL6SdmP/varA2ZkIFNjjEqR0E9y/5GyPxUNRsG13z/413o0BpR/tUaRnhW6fkjZt8TYKBTIQB5ycwk06I+vtr+EHWPex+GEYkdP7vzpsn+56PKfHgPan+ImcbOLRmBoV/XYKgUvbZrEbi3MWLfRcxwwZx8jyj2UD+G6nha0eGm92rP8InJv7eOcwQ5sYmbKRnZOfG3pb4zKlS+vbP3FHHIzK9NHx+XXSYZwbU8LWvRcS11vTlPeO85V47rTuoEpzW06c8SHvzG2TJienPEJ5Lyus3lCRxvSaI/JK+5TnUkHeGBSnXJ/m7n5M8TrDXZqbErTln246I8L3DasMZsM3cpo9brtNObfbiEvqQcNl8QgqufVjD+oaEyetuBkV/qmeHFgyfeB9FLFVRZeWszWcKVvmXL6YiGUjPttPnu3NKOpVQ/O8omkQWFVeTE8tOw1Otla0LS+FZ3Grud59RenFcTSf9FgtmlowvotuvD1T0/wviqoQ3p+vpO0PzKcq4ZO4/FckordfHP6n2X119O+LHlOOPfOGcC2jc1o3m4E1wbt5NROr3Dmcn9GUMnbP09hD+sGNKnbiPYD5nBf+C+c1vk1zlrhzwjm67EvOfYjtf6uc5VLJ/bo3p5W9Z6lsUlD2nR7nZ+fSJIp10Cxg0MspvG4rqEuJ9cROD9ypyq4X3r/0GnfsuYnlp4Du3P+OQULcxVMiLzGs7vfoX2Hj1UxRfraL93X60w6wFzfj7g8WG2v71p2rab/soAfX9B2nCCft33msv9z5qzbsDWHegSUBP1T7/yr0Ll+ZO4vBfE8sWYiezzXhKamjWk/eCEPxhRqGVdj1mvejv3e3cwLyXL1k2E/Ott/1IRzVVcNuzGfwgDNbHr0k95/DknvDyoe7nDj+8e0nYiozPVDyr71oVaXqv6zc1tqWV/y5k+3/Ush5T9VLxIHLwRPLhoLqWTRPG4COMX8yTBugaA893jMy4fXFAXMSQnnnwtfoO2bB5gmW/64Oc2ZTW04/vtgxmfkMS8zgf/seZutbBfwYpXUX8CksBDeSbnOz99dXe4HtEDwaHnU9i1FzbN/4eQJBIL/I6K4a4Ijm9atTdMmbeky1ZPBaYbIHz+JJ9fwjZ6t2ahubZo0aE77vm9x01+p0gVl8TeXd2nABq2HcWNwlnR2gaCKebT2LUXNs38jUufbhAUCgUAgEAgETylP97ERgUAgEAgEAoFWhJMnEAgEAoFAUAMRTp5AIBAIBAJBDUQ4eQKBQCAQCAQ1EOHkCQQCgUAgENRAhJMnEAgEAoFAUAMRTp5AIBAIBAJBDUQ4eQKBQCAQCAQ1EOHkCQQCgUAgENRAhJMnEAgEAoFAUAMRTp5AIBAIBAJBDUTaycs4hik247C/GpQRCAQCgUAgEFQNEk5eDs56zMTOO6webQQCgUAgEAgEVYJeJy8veBVm/lEA6+rSRiAQCAQCgUBQJfwPeTMfROwcFy0AAAAASUVORK5CYII=;" vertex="1" parent="1">
          <mxGeometry x="500" y="160" width="633" height="65" as="geometry" />
        </mxCell>
        <mxCell id="b7tUEqrKAt5MrTvn7w7H-4" value="以下均做过实验&lt;br&gt;参考链接：https://wizardforcel.gitbooks.io/guava-tutorial/content/1.html" style="text;html=1;strokeColor=none;fillColor=none;align=left;verticalAlign=middle;whiteSpace=wrap;rounded=0;" vertex="1" parent="1">
          <mxGeometry x="50" y="30" width="410" height="60" as="geometry" />
        </mxCell>
      </root>
    </mxGraphModel>
  </diagram>
</mxfile>
